<svg width="154" height="154" viewBox="0 0 154 154" fill="none" xmlns="http://www.w3.org/2000/svg">
<path d="M38.3635 49.9364H51.0469C52.5646 49.9364 53.7956 48.7055 53.7956 47.1878C53.7956 45.6701 52.5646 44.4392 51.0469 44.4392H38.3635L47.3322 35.4705C48.4055 34.3971 48.4055 32.6568 47.3322 31.5839C46.2589 30.5101 44.5181 30.5101 43.4452 31.5839L34.4764 40.5522V27.8687C34.4764 26.3506 33.2455 25.1201 31.7278 25.1201C30.2101 25.1201 28.9792 26.3506 28.9792 27.8687V40.5527L20.0105 31.5835C18.9371 30.5097 17.1963 30.5097 16.1235 31.5835C15.0501 32.6568 15.0501 34.3971 16.1235 35.47L25.0922 44.4387H12.4078C10.8901 44.4387 9.65918 45.6697 9.65918 47.1874C9.65918 48.7051 10.8901 49.936 12.4078 49.936H25.0922L16.1235 58.9047C15.0501 59.9781 15.0501 61.7184 16.1235 62.7913C16.6599 63.3282 17.3636 63.5966 18.0672 63.5966C18.7708 63.5966 19.474 63.3282 20.0109 62.7913L28.9797 53.8225V66.5069C28.9797 68.0246 30.2101 69.2556 31.7283 69.2556C33.2464 69.2556 34.4769 68.0246 34.4769 66.5069V53.8225L43.4456 62.7913C43.9821 63.3282 44.6857 63.5966 45.3894 63.5966C46.093 63.5966 46.7962 63.3282 47.3331 62.7913C48.4064 61.7179 48.4064 59.9776 47.3331 58.9047L38.3635 49.9364Z" fill="#EC652B"/>
<path d="M153.901 12.3495C153.499 10.8859 151.987 10.026 150.523 10.4278L107.111 22.3554C106.076 22.6394 105.302 23.4998 105.127 24.5589L101.623 45.8199H63.4216C62.7019 28.9571 48.7641 15.4601 31.7282 15.4601C14.2333 15.4596 0 29.6924 0 47.1878C0 64.6649 14.2035 78.8853 31.6732 78.9156L35.1768 141.077C35.2588 142.533 36.4632 143.671 37.9213 143.671H47.3601C48.4077 143.671 49.3643 143.076 49.8265 142.136C50.5805 140.603 52.1033 139.651 53.8005 139.651C55.4983 139.651 57.021 140.603 57.7755 142.136C58.2377 143.076 59.1942 143.671 60.2414 143.671H67.7127C68.7599 143.671 69.7164 143.076 70.1786 142.136C70.9331 140.603 72.4558 139.651 74.1527 139.651C75.8504 139.651 77.3731 140.603 78.1272 142.136C78.5898 143.076 79.5464 143.671 80.5936 143.671H88.0639C89.1111 143.671 90.0672 143.076 90.5298 142.137C91.2848 140.603 92.8084 139.651 94.5053 139.651C96.2021 139.651 97.7248 140.603 98.4793 142.136C98.942 143.076 99.8985 143.671 100.946 143.671H110.385C111.843 143.671 113.047 142.533 113.129 141.077L118.333 48.7229C118.376 47.9684 118.106 47.229 117.587 46.6802C117.067 46.131 116.345 45.8195 115.589 45.8195H107.194L110.265 27.1893L151.979 15.7276C153.443 15.3258 154.303 13.8132 153.901 12.3495ZM100.717 51.3167L97.2053 72.624H50.6731C57.3829 67.6132 62.0432 60.0119 63.1788 51.3167H100.717ZM49.9277 101.106C51.4335 101.064 52.7157 102.243 52.767 103.76L52.9837 110.193C53.0346 111.711 51.8463 112.982 50.329 113.033C50.2979 113.034 50.2663 113.035 50.2346 113.035C48.7596 113.035 47.5396 111.864 47.4892 110.379L47.2726 103.945C47.2222 102.428 48.4105 101.157 49.9277 101.106ZM46.9537 94.4801L46.4851 80.5794C46.4338 79.0626 47.6221 77.7909 49.1393 77.7396C50.6589 77.6915 51.9278 78.8766 51.9791 80.3943L52.4477 94.295C52.4991 95.8122 51.3107 97.0835 49.7935 97.1348C49.7619 97.1357 49.7303 97.1361 49.6991 97.1361C48.2236 97.1361 47.0037 95.9657 46.9537 94.4801ZM31.7282 73.4192C17.2645 73.4192 5.49723 61.6515 5.49723 47.1874C5.49723 32.7237 17.2645 20.9564 31.7282 20.9564C46.1919 20.9564 57.9592 32.7237 57.9592 47.1874C57.9592 61.652 46.1919 73.4192 31.7282 73.4192ZM107.787 138.174H102.48C100.628 135.658 97.7065 134.154 94.5053 134.154C91.3045 134.154 88.3823 135.658 86.5301 138.174H82.1287C80.277 135.658 77.3553 134.154 74.1531 134.154C70.9519 134.154 68.0297 135.658 66.1785 138.174H61.7766C59.9249 135.658 57.0027 134.154 53.801 134.154C50.5993 134.154 47.6771 135.658 45.8259 138.174H40.5197L39.8985 127.153H43.3723L108.195 130.918L107.787 138.174ZM112.681 51.3167L108.717 121.656H39.5888L37.1531 78.4433C38.4376 78.2206 39.6969 77.9251 40.9242 77.5532L43.5757 115.108C43.6774 116.547 44.8744 117.663 46.3174 117.663H101.99C103.433 117.663 104.631 116.547 104.732 115.108L107.523 75.5664C107.576 74.8055 107.312 74.0565 106.792 73.4985C106.272 72.9405 105.543 72.624 104.781 72.624H102.777L106.289 51.3167H112.681Z" fill="#EC652B"/>
</svg>
