<svg id="Layer_1" data-name="Layer 1" xmlns="http://www.w3.org/2000/svg" viewBox="0 0 140 121.22"><defs><style>.cls-1{fill:#dd5751;}</style></defs><title>aperoLG</title><path class="cls-1" d="M42.88,54.34H54.41a2.5,2.5,0,0,0,0-5H42.88L51,41.18a2.5,2.5,0,0,0-3.53-3.53L39.34,45.8V34.27a2.5,2.5,0,0,0-5,0V45.81l-8.15-8.16a2.5,2.5,0,0,0-3.53,3.53l8.15,8.16H19.28a2.5,2.5,0,0,0,0,5H30.81l-8.15,8.15A2.5,2.5,0,0,0,26.19,66l8.16-8.15V69.4a2.5,2.5,0,1,0,5,0V57.87L47.5,66a2.45,2.45,0,0,0,1.76.73A2.5,2.5,0,0,0,51,62.49Z" transform="translate(-8 -18.33)"/><path class="cls-1" d="M147.91,20.17a2.5,2.5,0,0,0-3.07-1.75L105.37,29.26a2.5,2.5,0,0,0-1.8,2l-3.19,19.32H65.66A28.84,28.84,0,1,0,36.79,80.68L40,137.19a2.5,2.5,0,0,0,2.49,2.36h8.58a2.5,2.5,0,0,0,2.25-1.4,4,4,0,0,1,7.22,0,2.49,2.49,0,0,0,2.24,1.4h6.8a2.49,2.49,0,0,0,2.24-1.4,4,4,0,0,1,7.22,0,2.51,2.51,0,0,0,2.25,1.4h6.79a2.49,2.49,0,0,0,2.24-1.4,4,4,0,0,1,7.23,0,2.49,2.49,0,0,0,2.24,1.4h8.58a2.49,2.49,0,0,0,2.49-2.36l4.74-84a2.51,2.51,0,0,0-2.5-2.64h-7.63l2.79-16.93,37.92-10.42A2.5,2.5,0,0,0,147.91,20.17ZM99.56,55.59,96.37,75H54.07A28.86,28.86,0,0,0,65.44,55.59ZM53.39,100.85A2.52,2.52,0,0,1,56,103.27l.2,5.84a2.52,2.52,0,0,1-2.42,2.59h-.08a2.51,2.51,0,0,1-2.5-2.42L51,103.43A2.5,2.5,0,0,1,53.39,100.85Zm-2.7-6-.43-12.64a2.5,2.5,0,1,1,5-.17l.43,12.64a2.49,2.49,0,0,1-2.41,2.58h-.09A2.49,2.49,0,0,1,50.69,94.83ZM36.84,75.68A23.85,23.85,0,1,1,60.69,51.84,23.87,23.87,0,0,1,36.84,75.68ZM106,134.55h-4.83a9,9,0,0,0-14.5,0h-4a9,9,0,0,0-14.5,0h-4a9,9,0,0,0-14.5,0H44.84l-.57-10h3.16L106.36,128Zm4.45-79-3.61,64H44L41.78,80.25a27.89,27.89,0,0,0,3.42-.81l2.41,34.14a2.51,2.51,0,0,0,2.5,2.33h50.61a2.5,2.5,0,0,0,2.49-2.33l2.54-35.94a2.45,2.45,0,0,0-.67-1.88,2.48,2.48,0,0,0-1.82-.8h-1.83l3.2-19.37Z" transform="translate(-8 -18.33)"/></svg>