<?xml version="1.0" encoding="utf-8"?>
<!-- Generator: Adobe Illustrator 23.0.4, SVG Export Plug-In . SVG Version: 6.00 Build 0)  -->
<svg version="1.1" id="Layer_1" xmlns="http://www.w3.org/2000/svg" xmlns:xlink="http://www.w3.org/1999/xlink" x="0px" y="0px"
	 viewBox="0 0 154 154" style="enable-background:new 0 0 154 154;" xml:space="preserve">
<style type="text/css">
	.st0{fill:#DD5751;}
</style>
<path class="st0" d="M42.9,54.3h11.5c1.4,0,2.5-1.1,2.5-2.5c0-1.4-1.1-2.5-2.5-2.5H42.9l8.2-8.2c1-1,1-2.6,0-3.5c-1-1-2.6-1-3.5,0
	l-8.2,8.2V34.3c0-1.4-1.1-2.5-2.5-2.5c-1.4,0-2.5,1.1-2.5,2.5v11.5l-8.2-8.2c-1-1-2.6-1-3.5,0c-1,1-1,2.6,0,3.5l8.2,8.2H19.3
	c-1.4,0-2.5,1.1-2.5,2.5c0,1.4,1.1,2.5,2.5,2.5h11.5l-8.2,8.2c-1,1-1,2.6,0,3.5c0.5,0.5,1.1,0.7,1.8,0.7s1.3-0.2,1.8-0.7l8.2-8.2
	v11.5c0,1.4,1.1,2.5,2.5,2.5c1.4,0,2.5-1.1,2.5-2.5V57.9l8.2,8.2c0.5,0.5,1.1,0.7,1.8,0.7c0.6,0,1.3-0.2,1.8-0.7c1-1,1-2.6,0-3.5
	L42.9,54.3z"/>
<path class="st0" d="M147.9,20.2c-0.4-1.3-1.7-2.1-3.1-1.7l-39.5,10.8c-0.9,0.3-1.6,1-1.8,2l-3.2,19.3H65.7C65,35.3,52.3,23,36.8,23
	C20.9,23,8,35.9,8,51.8c0,15.9,12.9,28.8,28.8,28.8l3.2,56.5c0.1,1.3,1.2,2.4,2.5,2.4h8.6c1,0,1.8-0.5,2.2-1.4
	c0.7-1.4,2.1-2.3,3.6-2.3c1.5,0,2.9,0.9,3.6,2.3c0.4,0.9,1.3,1.4,2.2,1.4h6.8c1,0,1.8-0.5,2.2-1.4c0.7-1.4,2.1-2.3,3.6-2.3
	c1.5,0,2.9,0.9,3.6,2.3c0.4,0.9,1.3,1.4,2.2,1.4h6.8c1,0,1.8-0.5,2.2-1.4c0.7-1.4,2.1-2.3,3.6-2.3c1.5,0,2.9,0.9,3.6,2.3
	c0.4,0.9,1.3,1.4,2.2,1.4h8.6c1.3,0,2.4-1,2.5-2.4l4.7-84c0-0.7-0.2-1.4-0.7-1.9c-0.5-0.5-1.1-0.8-1.8-0.8h-7.6l2.8-16.9l37.9-10.4
	C147.5,22.9,148.3,21.5,147.9,20.2z M99.6,55.6L96.4,75H54.1c6.1-4.6,10.3-11.5,11.4-19.4H99.6z M53.4,100.9c1.4,0,2.5,1,2.6,2.4
	l0.2,5.8c0,1.4-1,2.5-2.4,2.6c0,0-0.1,0-0.1,0c-1.3,0-2.5-1.1-2.5-2.4l-0.2-5.8C50.9,102.1,52,100.9,53.4,100.9z M50.7,94.8
	l-0.4-12.6c0-1.4,1-2.5,2.4-2.6c1.4,0,2.5,1,2.6,2.4l0.4,12.6c0,1.4-1,2.5-2.4,2.6c0,0-0.1,0-0.1,0C51.8,97.2,50.7,96.2,50.7,94.8z
	 M36.8,75.7C23.7,75.7,13,65,13,51.8C13,38.7,23.7,28,36.8,28s23.8,10.7,23.8,23.8C60.7,65,50,75.7,36.8,75.7z M106,134.6h-4.8
	c-1.7-2.3-4.3-3.7-7.2-3.7c-2.9,0-5.6,1.4-7.3,3.7h-4c-1.7-2.3-4.3-3.7-7.3-3.7c-2.9,0-5.6,1.4-7.2,3.7h-4c-1.7-2.3-4.3-3.7-7.3-3.7
	c-2.9,0-5.6,1.4-7.3,3.7h-4.8l-0.6-10h3.2l58.9,3.4L106,134.6z M110.4,55.6l-3.6,63.9H44l-2.2-39.3c1.2-0.2,2.3-0.5,3.4-0.8
	l2.4,34.1c0.1,1.3,1.2,2.3,2.5,2.3h50.6c1.3,0,2.4-1,2.5-2.3l2.5-35.9c0-0.7-0.2-1.4-0.7-1.9c-0.5-0.5-1.1-0.8-1.8-0.8h-1.8
	l3.2-19.4H110.4z"/>
</svg>
