<svg width="154" height="154" viewBox="0 0 154 154" fill="none" xmlns="http://www.w3.org/2000/svg">
<g clip-path="url(#clip0)">
<path d="M132.384 116.835C137.179 107.86 139.714 97.7047 139.714 87.4676C139.714 77.2316 137.179 67.0767 132.386 58.1002C123.379 41.2306 107.376 29.647 89.0401 26.1469V17.7908C89.0401 15.0285 86.9628 12.7468 84.2887 12.4143V1.95508C84.2887 0.709658 83.2794 -0.300781 82.0328 -0.300781H72.5324C71.2858 -0.300781 70.2765 0.709658 70.2765 1.95508V12.4143C67.6024 12.7468 65.5251 15.0285 65.5251 17.7908V26.1328C55.9741 27.9398 47.0141 31.9616 39.1632 38.0231C38.1763 38.7844 37.9941 40.2014 38.7555 41.1871C39.5169 42.1741 40.9338 42.3562 41.9196 41.5937C45.8814 38.5353 50.1476 36.0386 54.6417 34.1258C48.3547 39.628 43.0499 47.4378 39.3371 57.024H28.0049C29.8848 53.9868 32.0467 51.12 34.4588 48.4717C35.2977 47.5517 35.2319 46.1242 34.3107 45.2853C33.3896 44.4464 31.9621 44.5122 31.1232 45.4345C27.6266 49.2718 24.6176 53.5333 22.1796 58.1002C17.3859 67.0755 14.8516 77.2304 14.8516 87.4676C14.8516 97.7036 17.3847 107.858 22.1796 116.835C33.0688 137.229 54.1823 149.899 77.2826 149.899C91.2173 149.899 104.399 145.408 115.402 136.912C116.389 136.15 116.57 134.734 115.81 133.747C115.048 132.761 113.631 132.579 112.644 133.34C108.684 136.399 104.416 138.895 99.9235 140.808C106.211 135.306 111.514 127.497 115.227 117.911H126.56C124.68 120.948 122.519 123.814 120.106 126.462C119.268 127.383 119.333 128.811 120.254 129.65C120.687 130.043 121.231 130.237 121.774 130.237C122.386 130.237 122.997 129.989 123.442 129.502C126.937 125.663 129.948 121.401 132.384 116.835ZM95.279 113.399C96.2859 106.017 96.8557 97.9268 96.9439 89.7234H116.166C115.948 97.955 114.545 106.066 112.065 113.399H95.279ZM77.2826 145.387C73.3454 145.387 67.7986 136.762 64.5464 117.911H90.0188C86.7666 136.761 81.2198 145.387 77.2826 145.387ZM25.4858 113.399C21.813 106.071 19.7346 97.9574 19.4126 89.7234H33.8854C34.091 97.908 35.414 105.993 37.7545 113.399H25.4858ZM25.4858 61.5357H37.7545C35.414 68.9425 34.091 77.0272 33.8854 85.2117H19.4126C19.7346 76.9778 21.813 68.8638 25.4858 61.5357ZM59.2862 61.5357C58.2793 68.9178 57.7095 77.0084 57.6213 85.2117H38.3995C38.6169 76.9802 40.0185 68.8696 42.4988 61.5357H59.2862ZM77.2826 29.5483C81.2198 29.5483 86.7655 38.1734 90.0188 57.024H64.5464C67.7986 38.1746 73.3454 29.5483 77.2826 29.5483ZM129.079 61.5357C132.752 68.8638 134.829 76.9778 135.153 85.2117H120.68C120.473 77.0272 119.151 68.9425 116.811 61.5357H129.079ZM116.166 85.2117H96.9439C96.8557 77.0084 96.2859 68.9178 95.279 61.5357H112.066C114.547 68.8696 115.948 76.9802 116.166 85.2117ZM94.5964 57.024C93.3768 49.7806 90.8154 38.1464 86.1745 31.0839C96.1249 34.5688 104.861 43.8143 110.366 57.024H94.5964ZM90.725 61.5357C91.7577 68.8814 92.3417 76.9837 92.4321 85.2117H62.1331C62.2235 76.9837 62.8075 68.8814 63.8391 61.5357H90.725ZM38.3983 89.7234H57.6202C57.7095 97.9268 58.2781 106.017 59.285 113.399H42.4988C40.0185 106.066 38.6169 97.955 38.3983 89.7234ZM59.9688 117.911C61.1872 125.155 63.7486 136.789 68.3896 143.851C58.4403 140.366 49.7035 131.121 44.1989 117.911H59.9688ZM63.8391 113.399C62.8075 106.055 62.2235 97.9515 62.1331 89.7234H92.4321C92.3417 97.9515 91.7577 106.054 90.725 113.399H63.8391ZM120.68 89.7234H135.153C134.831 97.9574 132.752 106.071 129.079 113.399H116.811C119.151 105.993 120.474 97.908 120.68 89.7234ZM126.563 57.024H115.227C111.522 47.4566 106.232 39.6597 99.9611 34.1599C110.833 38.7809 120.175 46.6882 126.563 57.024ZM74.7882 4.21095H79.777V12.3673H74.7882V4.21095ZM70.0368 17.7908C70.0368 17.2879 70.4457 16.879 70.9486 16.879H83.6166C84.1183 16.879 84.5284 17.2879 84.5284 17.7908V25.456C82.1409 25.1799 79.7229 25.0366 77.2826 25.0366C74.8411 25.0366 72.4243 25.1764 70.0368 25.4501V17.7908ZM68.3896 31.0839C63.7486 38.1464 61.1872 49.7806 59.9688 57.024H44.1989C49.7047 43.8143 58.4403 34.5688 68.3896 31.0839ZM28.0025 117.911H39.3371C43.0428 127.479 48.3335 135.275 54.6029 140.775C43.7325 136.154 34.3895 128.247 28.0025 117.911ZM86.1745 143.851C90.8154 136.789 93.3768 125.155 94.5964 117.911H110.365C104.861 131.121 96.1249 140.366 86.1745 143.851Z" fill="#6135AC"/>
<path d="M146.503 136.986L141.988 135.25C141.211 134.951 140.601 134.332 140.314 133.552L137.517 125.961C137.191 125.074 136.345 124.484 135.4 124.484C134.454 124.484 133.609 125.074 133.283 125.961L130.486 133.551C130.199 134.332 129.588 134.951 128.811 135.25L124.297 136.986C123.425 137.321 122.851 138.158 122.851 139.092C122.851 140.025 123.425 140.862 124.297 141.197L128.811 142.934C129.588 143.232 130.199 143.851 130.486 144.633L133.283 152.224C133.609 153.11 134.454 153.7 135.4 153.7C136.345 153.7 137.189 153.11 137.517 152.224L140.314 144.633C140.601 143.851 141.211 143.232 141.988 142.934L146.503 141.197C147.374 140.862 147.949 140.025 147.949 139.092C147.949 138.159 147.374 137.321 146.503 136.986ZM136.08 143.072L135.4 144.918L134.72 143.072C134.086 141.353 132.842 139.94 131.242 139.092C132.842 138.243 134.086 136.83 134.72 135.111L135.4 133.265L136.08 135.111C136.714 136.83 137.958 138.243 139.558 139.092C137.958 139.941 136.714 141.353 136.08 143.072Z" fill="#6135AC"/>
<path d="M14.2531 39.1674L17.0494 46.7574C17.376 47.6445 18.2208 48.2343 19.1666 48.2343C20.1112 48.2343 20.956 47.6445 21.2827 46.7574L24.0802 39.1674C24.368 38.386 24.9778 37.7668 25.7544 37.4684L30.2697 35.7319C31.1403 35.397 31.716 34.5593 31.716 33.6264C31.716 32.6923 31.1403 31.8558 30.2697 31.5209L25.7544 29.7844C24.9778 29.4859 24.368 28.8667 24.0802 28.0866L21.2827 20.4954C20.956 19.6083 20.1112 19.0185 19.1666 19.0185C18.2208 19.0185 17.376 19.6083 17.0494 20.4954L14.2531 28.0866C13.9652 28.8667 13.3554 29.4859 12.5776 29.7844L8.06353 31.5209C7.19173 31.8558 6.61719 32.6923 6.61719 33.6264C6.61719 34.5593 7.19173 35.397 8.06353 35.7319L12.5788 37.4684C13.3542 37.7668 13.9652 38.386 14.2531 39.1674ZM18.4863 29.6457L19.1666 27.7999L19.8457 29.6457C20.479 31.3646 21.7233 32.7781 23.3247 33.6264C21.7233 34.4747 20.479 35.8881 19.8457 37.607L19.1666 39.4529L18.4863 37.607C17.853 35.8881 16.6088 34.4747 15.0085 33.6264C16.6088 32.7781 17.853 31.3646 18.4863 29.6457Z" fill="#6135AC"/>
<path d="M135.559 35.8824C136.804 35.8824 137.814 34.872 137.814 33.6265V31.7267C137.814 30.4801 136.804 29.4708 135.559 29.4708C134.312 29.4708 133.303 30.4801 133.303 31.7267V33.6265C133.303 34.872 134.312 35.8824 135.559 35.8824Z" fill="#6135AC"/>
<path d="M137.103 37.4275C137.103 38.6729 138.113 39.6834 139.358 39.6834H141.259C142.505 39.6834 143.515 38.6729 143.515 37.4275C143.515 36.1809 142.505 35.1716 141.259 35.1716H139.358C138.113 35.1716 137.103 36.1809 137.103 37.4275Z" fill="#6135AC"/>
<path d="M135.559 38.9713C134.312 38.9713 133.303 39.9817 133.303 41.2271V43.1282C133.303 44.3736 134.312 45.3841 135.559 45.3841C136.804 45.3841 137.814 44.3736 137.814 43.1282V41.2271C137.814 39.9817 136.804 38.9713 135.559 38.9713Z" fill="#6135AC"/>
<path d="M129.857 39.6834H131.757C133.003 39.6834 134.013 38.6729 134.013 37.4275C134.013 36.1809 133.003 35.1716 131.757 35.1716H129.857C128.611 35.1716 127.602 36.1809 127.602 37.4275C127.602 38.6729 128.611 39.6834 129.857 39.6834Z" fill="#6135AC"/>
<path d="M19.0078 134.696C20.2532 134.696 21.2637 133.687 21.2637 132.44V130.54C21.2637 129.295 20.2532 128.285 19.0078 128.285C17.7612 128.285 16.752 129.295 16.752 130.54V132.44C16.752 133.687 17.7612 134.696 19.0078 134.696Z" fill="#6135AC"/>
<path d="M24.7085 133.985H22.8086C21.562 133.985 20.5527 134.996 20.5527 136.241C20.5527 137.488 21.562 138.497 22.8086 138.497H24.7085C25.9539 138.497 26.9643 137.488 26.9643 136.241C26.9643 134.996 25.9539 133.985 24.7085 133.985Z" fill="#6135AC"/>
<path d="M19.0078 137.786C17.7612 137.786 16.752 138.795 16.752 140.042V141.942C16.752 143.188 17.7612 144.198 19.0078 144.198C20.2532 144.198 21.2637 143.188 21.2637 141.942V140.042C21.2637 138.795 20.2532 137.786 19.0078 137.786Z" fill="#6135AC"/>
<path d="M17.4624 136.241C17.4624 134.996 16.4531 133.985 15.2065 133.985H13.3066C12.06 133.985 11.0508 134.996 11.0508 136.241C11.0508 137.488 12.06 138.497 13.3066 138.497H15.2065C16.4531 138.497 17.4624 137.488 17.4624 136.241Z" fill="#6135AC"/>
</g>
<defs>
<clipPath id="clip0">
<rect width="154" height="154" fill="white"/>
</clipPath>
</defs>
</svg>
