<svg width="24" height="24" viewBox="0 0 24 24" fill="none" xmlns="http://www.w3.org/2000/svg">
<g clip-path="url(#clip0)">
<path d="M20.6313 18.208C21.3785 16.8093 21.7735 15.2267 21.7735 13.6313C21.7735 12.0361 21.3785 10.4535 20.6314 9.05458C19.2278 6.42555 16.7339 4.62031 13.8763 4.07484V2.77259C13.8763 2.34211 13.5526 1.98652 13.1358 1.9347V0.304688C13.1358 0.110596 12.9785 -0.046875 12.7843 -0.046875H11.3037C11.1094 -0.046875 10.9521 0.110596 10.9521 0.304688V1.9347C10.5354 1.98652 10.2116 2.34211 10.2116 2.77259V4.07264C8.72316 4.35426 7.32679 4.98103 6.10328 5.92567C5.94947 6.04432 5.92109 6.26515 6.03974 6.41878C6.15839 6.57258 6.37922 6.60097 6.53285 6.48213C7.15028 6.00551 7.81514 5.61641 8.51552 5.31831C7.53572 6.17579 6.70899 7.3929 6.13038 8.88686H4.36432C4.65729 8.41353 4.99421 7.96675 5.37012 7.55403C5.50086 7.41066 5.49061 7.18819 5.34705 7.05745C5.2035 6.92671 4.98102 6.93696 4.85029 7.0807C4.30536 7.67873 3.83643 8.34285 3.45648 9.05458C2.70941 10.4533 2.31445 12.0359 2.31445 13.6313C2.31445 15.2265 2.70923 16.8091 3.45648 18.208C5.15351 21.3864 8.44392 23.3608 12.044 23.3608C14.2156 23.3608 16.2699 22.661 17.9847 21.337C18.1385 21.2181 18.1667 20.9975 18.0482 20.8437C17.9295 20.69 17.7087 20.6617 17.5549 20.7803C16.9377 21.2569 16.2726 21.646 15.5724 21.9441C16.5522 21.0867 17.3788 19.8697 17.9574 18.3758H19.7236C19.4306 18.8491 19.0937 19.2957 18.7178 19.7084C18.5871 19.852 18.5973 20.0744 18.7409 20.2052C18.8083 20.2665 18.893 20.2967 18.9776 20.2967C19.073 20.2967 19.1682 20.2581 19.2376 20.1821C19.7824 19.5839 20.2515 18.9196 20.6313 18.208V18.208ZM14.8486 17.6726C15.0055 16.5222 15.0943 15.2613 15.1081 13.9829H18.1037C18.0698 15.2657 17.8512 16.5297 17.4646 17.6726H14.8486ZM12.044 22.6577C11.4304 22.6577 10.5659 21.3135 10.0591 18.3758H14.0288C13.522 21.3133 12.6576 22.6577 12.044 22.6577V22.6577ZM3.97174 17.6726C3.39936 16.5306 3.07544 15.2661 3.02527 13.9829H5.28077C5.31281 15.2584 5.51899 16.5183 5.88374 17.6726H3.97174ZM3.97174 9.58998H5.88374C5.51899 10.7443 5.31281 12.0042 5.28077 13.2798H3.02527C3.07544 11.9965 3.39936 10.732 3.97174 9.58998V9.58998ZM9.23933 9.58998C9.08241 10.7404 8.99361 12.0013 8.97987 13.2798H5.98426C6.01814 11.9969 6.23658 10.7329 6.62312 9.58998H9.23933ZM12.044 4.60493C12.6576 4.60493 13.5218 5.94911 14.0288 8.88686H10.0591C10.5659 5.94929 11.4304 4.60493 12.044 4.60493V4.60493ZM20.1162 9.58998C20.6886 10.732 21.0123 11.9965 21.0627 13.2798H18.8072C18.7749 12.0042 18.5689 10.7443 18.2042 9.58998H20.1162ZM18.1037 13.2798H15.1081C15.0943 12.0013 15.0055 10.7404 14.8486 9.58998H17.4648C17.8514 10.7329 18.0698 11.9969 18.1037 13.2798ZM14.7422 8.88686C14.5521 7.75801 14.153 5.9449 13.4297 4.84425C14.9804 5.38734 16.3418 6.8282 17.1999 8.88686H14.7422ZM14.1389 9.58998C14.2998 10.7348 14.3908 11.9975 14.4049 13.2798H9.683C9.6971 11.9975 9.7881 10.7348 9.94887 9.58998H14.1389ZM5.98408 13.9829H8.97969C8.99361 15.2613 9.08223 16.5222 9.23915 17.6726H6.62312C6.23658 16.5297 6.01814 15.2657 5.98408 13.9829ZM9.34572 18.3758C9.5356 19.5046 9.93477 21.3177 10.658 22.4184C9.1075 21.8753 7.74592 20.4344 6.88807 18.3758H9.34572ZM9.94887 17.6726C9.7881 16.528 9.6971 15.2652 9.683 13.9829H14.4049C14.3908 15.2652 14.2998 16.5279 14.1389 17.6726H9.94887ZM18.8072 13.9829H21.0627C21.0125 15.2661 20.6886 16.5306 20.1162 17.6726H18.2042C18.5689 16.5183 18.7751 15.2584 18.8072 13.9829ZM19.724 8.88686H17.9574C17.38 7.39583 16.5555 6.18074 15.5783 5.32362C17.2726 6.04377 18.7284 7.27608 19.724 8.88686ZM11.6552 0.656251H12.4327V1.92737H11.6552V0.656251ZM10.9148 2.77259C10.9148 2.69422 10.9785 2.6305 11.0568 2.6305H13.0311C13.1093 2.6305 13.1732 2.69422 13.1732 2.77259V3.96717C12.8011 3.92414 12.4243 3.9018 12.044 3.9018C11.6635 3.9018 11.2868 3.92359 10.9148 3.96626V2.77259ZM10.658 4.84425C9.93477 5.9449 9.5356 7.75801 9.34572 8.88686H6.88807C7.7461 6.8282 9.1075 5.38734 10.658 4.84425ZM4.36396 18.3758H6.13038C6.70789 19.8668 7.53242 21.0819 8.50947 21.939C6.81538 21.2189 5.35932 19.9866 4.36396 18.3758ZM13.4297 22.4184C14.153 21.3177 14.5521 19.5046 14.7422 18.3758H17.1997C16.3418 20.4344 14.9804 21.8753 13.4297 22.4184Z" fill="black"/>
<path d="M22.8316 21.3483L22.1279 21.0777C22.0069 21.0312 21.9119 20.9347 21.867 20.8131L21.4312 19.6301C21.3803 19.4918 21.2485 19.3999 21.1013 19.3999C20.9539 19.3999 20.8222 19.4918 20.7713 19.6301L20.3355 20.8129C20.2907 20.9347 20.1954 21.0312 20.0744 21.0777L19.3709 21.3483C19.235 21.4005 19.1455 21.5309 19.1455 21.6765C19.1455 21.8218 19.235 21.9524 19.3709 22.0046L20.0744 22.2752C20.1954 22.3217 20.2907 22.4182 20.3355 22.54L20.7713 23.723C20.8222 23.8611 20.9539 23.953 21.1013 23.953C21.2485 23.953 21.3801 23.8611 21.4312 23.723L21.867 22.54C21.9119 22.4182 22.0069 22.3217 22.1279 22.2752L22.8316 22.0046C22.9673 21.9524 23.057 21.8218 23.057 21.6765C23.057 21.5311 22.9673 21.4005 22.8316 21.3483V21.3483ZM21.2073 22.2968L21.1013 22.5845L20.9952 22.2968C20.8965 22.0289 20.7026 21.8087 20.4532 21.6765C20.7026 21.5443 20.8965 21.324 20.9952 21.0561L21.1013 20.7684L21.2073 21.0561C21.306 21.324 21.4999 21.5443 21.7493 21.6765C21.4999 21.8088 21.306 22.0289 21.2073 22.2968Z" fill="black"/>
<path d="M2.22125 6.10395L2.65705 7.28681C2.70795 7.42506 2.8396 7.51698 2.987 7.51698C3.13422 7.51698 3.26587 7.42506 3.31678 7.28681L3.75275 6.10395C3.79761 5.98218 3.89265 5.88569 4.01368 5.83918L4.71735 5.56855C4.85304 5.51636 4.94276 5.38581 4.94276 5.24042C4.94276 5.09485 4.85304 4.96448 4.71735 4.9123L4.01368 4.64167C3.89265 4.59516 3.79761 4.49866 3.75275 4.37708L3.31678 3.19403C3.26587 3.05579 3.13422 2.96387 2.987 2.96387C2.8396 2.96387 2.70795 3.05579 2.65705 3.19403L2.22125 4.37708C2.17639 4.49866 2.08136 4.59516 1.96015 4.64167L1.25665 4.9123C1.12079 4.96448 1.03125 5.09485 1.03125 5.24042C1.03125 5.38581 1.12079 5.51636 1.25665 5.56855L1.96033 5.83918C2.08118 5.88569 2.17639 5.98218 2.22125 6.10395ZM2.88099 4.62006L2.987 4.3324L3.09284 4.62006C3.19153 4.88794 3.38544 5.10822 3.63502 5.24042C3.38544 5.37263 3.19153 5.5929 3.09284 5.86079L2.987 6.14844L2.88099 5.86079C2.78229 5.5929 2.58838 5.37263 2.33899 5.24042C2.58838 5.10822 2.78229 4.88794 2.88099 4.62006Z" fill="black"/>
<path d="M21.126 5.59198C21.3201 5.59198 21.4775 5.43451 21.4775 5.24042V4.94434C21.4775 4.75006 21.3201 4.59277 21.126 4.59277C20.9317 4.59277 20.7744 4.75006 20.7744 4.94434V5.24042C20.7744 5.43451 20.9317 5.59198 21.126 5.59198Z" fill="black"/>
<path d="M21.3672 5.83252C21.3672 6.02662 21.5247 6.18409 21.7188 6.18409H22.015C22.2091 6.18409 22.3666 6.02662 22.3666 5.83252C22.3666 5.63825 22.2091 5.48096 22.015 5.48096H21.7188C21.5247 5.48096 21.3672 5.63825 21.3672 5.83252Z" fill="black"/>
<path d="M21.126 6.07373C20.9317 6.07373 20.7744 6.2312 20.7744 6.42529V6.72156C20.7744 6.91565 20.9317 7.07312 21.126 7.07312C21.3201 7.07312 21.4775 6.91565 21.4775 6.72156V6.42529C21.4775 6.2312 21.3201 6.07373 21.126 6.07373Z" fill="black"/>
<path d="M20.2373 6.18409H20.5334C20.7275 6.18409 20.8849 6.02662 20.8849 5.83252C20.8849 5.63825 20.7275 5.48096 20.5334 5.48096H20.2373C20.043 5.48096 19.8857 5.63825 19.8857 5.83252C19.8857 6.02662 20.043 6.18409 20.2373 6.18409Z" fill="black"/>
<path d="M2.96192 20.9914C3.15601 20.9914 3.31348 20.8341 3.31348 20.6398V20.3438C3.31348 20.1497 3.15601 19.9922 2.96192 19.9922C2.76764 19.9922 2.61035 20.1497 2.61035 20.3438V20.6398C2.61035 20.8341 2.76764 20.9914 2.96192 20.9914Z" fill="black"/>
<path d="M3.85077 20.8809H3.55469C3.36041 20.8809 3.20312 21.0383 3.20312 21.2324C3.20312 21.4267 3.36041 21.584 3.55469 21.584H3.85077C4.04486 21.584 4.20233 21.4267 4.20233 21.2324C4.20233 21.0383 4.04486 20.8809 3.85077 20.8809Z" fill="black"/>
<path d="M2.96192 21.4731C2.76764 21.4731 2.61035 21.6304 2.61035 21.8247V22.1208C2.61035 22.3151 2.76764 22.4724 2.96192 22.4724C3.15601 22.4724 3.31348 22.3151 3.31348 22.1208V21.8247C3.31348 21.6304 3.15601 21.4731 2.96192 21.4731Z" fill="black"/>
<path d="M2.72186 21.2324C2.72186 21.0383 2.56457 20.8809 2.3703 20.8809H2.07422C1.87994 20.8809 1.72266 21.0383 1.72266 21.2324C1.72266 21.4267 1.87994 21.584 2.07422 21.584H2.3703C2.56457 21.584 2.72186 21.4267 2.72186 21.2324Z" fill="black"/>
</g>
<defs>
<clipPath id="clip0">
<rect width="24" height="24" fill="white"/>
</clipPath>
</defs>
</svg>
