<?xml version="1.0" encoding="utf-8"?>
<!-- Generator: Adobe Illustrator 23.0.4, SVG Export Plug-In . SVG Version: 6.00 Build 0)  -->
<svg version="1.1" id="Layer_1" xmlns="http://www.w3.org/2000/svg" xmlns:xlink="http://www.w3.org/1999/xlink" x="0px" y="0px"
	 viewBox="0 0 147.5 156" style="enable-background:new 0 0 147.5 156;" xml:space="preserve">
<style type="text/css">
	.st0{fill:#23AD97;}
</style>
<path class="st0" d="M15.6,129.9h3.8l8.3-17.1v-5.9c0-1,0.8-1.9,1.9-1.9h3.8L18.9,79.9c-0.5-0.9-0.2-2,0.7-2.6l5.5-3.2
	c0.9-0.5,2-0.2,2.6,0.7L45,105h9.1v-2.3l0-4.2V79.1c-4.6-0.6-8.7-3.6-10.7-7.8c-1.7,0.9-3.6,1.3-5.6,1.3c-7,0-12.8-5.7-12.8-12.8
	c0-6.4,4.7-11.7,10.9-12.7c-0.3-1.3-0.4-2.7-0.4-4.1c0-11.3,9.2-20.5,20.5-20.5c11.3,0,20.5,9.2,20.5,20.5c0,0.7,0,1.3-0.1,2
	c7,2,11.9,8.4,11.9,15.8c0,0,1.1,6.7-4.4,12.5c-5.5,5.8-13.2,3.9-13.2,3.9c-1.9-0.1-3.8-0.6-5.5-1.4c-2.1,1.8-4.6,3-7.3,3.3v19.4
	v4.4v2.2H127c1,0,1.9,0.8,1.9,1.9v6.4c0,1-0.8,1.9-1.9,1.9h-6l7.2,14.7h3.8c1,0,1.9,0.8,1.9,1.9c0,1-0.8,1.9-1.9,1.9H15.6
	c-1,0-1.9-0.8-1.9-1.9C13.7,130.7,14.6,129.9,15.6,129.9z M57.9,51v11.9v2.2l7.2-7.2c0.7-0.7,1.9-0.7,2.6,0s0.7,1.9,0,2.6L58,70.3
	c0,0-0.1,0.1-0.1,0.1V76c2.1-0.4,4.1-1.4,5.6-3.1c0.6-0.6,1.5-0.8,2.3-0.3c1.5,0.9,3.2,1.4,4.9,1.5c0,0,2.7,0.7,6.7-1
	c4-1.7,4.8-4.3,4.8-4.3c1.5-2.2,2.4-4.7,2.4-7.4c0-6.2-4.4-11.5-10.5-12.5c-0.5-0.1-0.9-0.3-1.2-0.8c-0.3-0.4-0.4-0.9-0.3-1.4
	c0.2-1,0.3-2.1,0.3-3.1c0-9.3-7.5-16.8-16.8-16.8c-9.3,0-16.8,7.5-16.8,16.8c0,1.8,0.3,3.6,0.8,5.2c0.2,0.6,0.1,1.2-0.3,1.7
	c-0.4,0.5-0.9,0.7-1.5,0.7c-0.1,0-0.2,0-0.4,0c-5,0-9.1,4.1-9.1,9.1c0,5,4.1,9.1,9.1,9.1c2,0,3.8-0.6,5.4-1.8
	c0.5-0.4,1.1-0.5,1.7-0.3c0.6,0.2,1,0.7,1.2,1.3c1.1,3.8,4.2,6.6,8,7.3V63.7l-9.2-9.2c-0.7-0.7-0.7-1.9,0-2.6c0.7-0.7,1.9-0.7,2.6,0
	l6.6,6.6v-7.4c0-1,0.8-1.9,1.9-1.9C57.1,49.1,57.9,50,57.9,51z M31.4,108.8v2.6H37l-1.5-2.6H31.4z M25.3,78.4l-2.3,1.3l18.2,31.7h3
	L25.3,78.4z M125.1,111.4v-2.6H47.2l1.5,2.6H125.1z M57.9,129.9H124l-7.2-14.7H57.9L57.9,129.9L57.9,129.9z M54.1,129.9v-14.7H30.7
	l-7.2,14.7H54.1z"/>
</svg>
