<svg width="178" height="165" viewBox="0 0 178 165" fill="none" xmlns="http://www.w3.org/2000/svg">
<path d="M2.76889 159.447H8.34622L20.648 134.142V125.337C20.648 123.79 21.8742 122.56 23.4169 122.56H29.0733L7.67378 85.3558C6.92223 84.0469 7.35733 82.3413 8.70222 81.5481L16.8507 76.8281C18.156 76.0745 19.8569 76.5108 20.648 77.8594L46.3591 122.56H59.9267V119.109L59.9662 112.843V84.0865C53.0836 83.1346 47.0711 78.732 44.0649 72.4651C41.4938 73.7344 38.6853 74.369 35.7978 74.369C25.3551 74.369 16.8111 65.8413 16.8111 55.3305C16.8111 45.8113 23.8125 37.9183 32.9102 36.53C32.5147 34.5469 32.3169 32.4844 32.3169 30.4615C32.3169 13.6442 45.9636 0 62.6956 0C79.4671 0 93.0742 13.6839 93.0742 30.4615C93.0742 31.4531 93.0347 32.4447 92.916 33.4363C103.24 36.3714 110.518 45.851 110.518 56.8774C110.518 56.8774 112.219 66.7933 103.992 75.4796C95.764 84.1262 84.4116 81.2308 84.4116 81.2308C81.6031 81.0325 78.8342 80.3185 76.2631 79.1683C73.2173 81.8654 69.42 83.5709 65.3853 84.1262V112.962V119.466V122.679H167.953C169.496 122.679 170.722 123.909 170.722 125.456V134.895C170.722 136.442 169.496 137.672 167.953 137.672H159.013L169.654 159.447H175.231C176.774 159.447 178 160.677 178 162.224C178 163.77 176.774 165 175.231 165H2.76889C1.22623 165 0 163.77 0 162.224C0 160.716 1.22623 159.447 2.76889 159.447ZM65.5436 42.4796V60.1695V63.4219L76.184 52.7524C77.252 51.6815 78.9924 51.6815 80.0604 52.7524C81.1284 53.8233 81.1284 55.5685 80.0604 56.6394L65.7018 71.0373C65.6622 71.0769 65.5831 71.1562 65.5436 71.1959V79.4856C68.708 78.8906 71.5956 77.3438 73.8898 74.8846C74.76 73.9724 76.1444 73.7344 77.252 74.369C79.5067 75.6382 81.9987 76.3918 84.5698 76.6298C84.5698 76.6298 88.6044 77.6611 94.4982 75.1226C100.392 72.5841 101.658 68.8161 101.658 68.8161C103.952 65.6034 105.178 61.7957 105.178 57.8293C105.178 48.5877 98.612 40.774 89.5538 39.2272C88.8418 39.1082 88.1693 38.7115 87.7738 38.0769C87.3387 37.482 87.1804 36.7284 87.3387 36.0144C87.6156 34.5072 87.7738 32.9603 87.7738 31.4531C87.7738 17.6899 76.6191 6.50481 62.8933 6.50481C49.1676 6.50481 38.0129 17.6899 38.0129 31.4531C38.0129 34.1106 38.448 36.7284 39.2391 39.2272C39.516 40.0998 39.3578 41.012 38.804 41.7656C38.2502 42.4796 37.4196 42.8762 36.5098 42.8762C36.312 42.8762 36.1538 42.8762 35.956 42.8762C28.5195 42.8762 22.4675 48.9447 22.4675 56.4014C22.4675 63.8582 28.5195 69.9267 35.956 69.9267C38.8831 69.9267 41.652 69.0144 43.9858 67.2692C44.6978 66.7139 45.6471 66.595 46.5173 66.8726C47.3876 67.1502 48.0204 67.8642 48.2973 68.7368C49.8796 74.369 54.5471 78.5337 60.1244 79.5649V61.3594L46.4778 47.6755C45.4098 46.6046 45.4098 44.8594 46.4778 43.7885C47.5458 42.7175 49.2862 42.7175 50.3542 43.7885L60.1244 53.5853V42.5589C60.1244 41.0517 61.3507 39.7825 62.8933 39.7825C64.3173 39.7031 65.5436 40.9327 65.5436 42.4796ZM26.1858 128.153V132.04H34.4924L32.2773 128.153H26.1858ZM17.2067 83.0949L13.8445 85.0385L40.9004 132.04H45.3702L17.2067 83.0949ZM165.184 132.04V128.153H49.5631L51.7782 132.04H165.184ZM65.4644 159.447H163.483L152.843 137.593H65.4249V159.447H65.4644ZM59.9267 159.447V137.593H25.1573L14.5169 159.447H59.9267Z" fill="#DD5751"/>
</svg>
