<svg width="24" height="24" viewBox="0 0 24 24" fill="none" xmlns="http://www.w3.org/2000/svg">
<path d="M9.83394 6.25609V6.08864C9.83394 5.17025 10.5798 4.42945 11.4931 4.42945C12.4115 4.42945 13.1523 5.17532 13.1523 6.08864C13.1523 7.28611 12.3963 8.35165 11.2648 8.74742L7.83478 9.94995C6.98235 10.2493 6.41406 11.0561 6.41406 11.9542V20.8438C6.41406 21.9398 7.30201 22.8278 8.39799 22.8278H14.5832C15.6792 22.8278 16.5671 21.9398 16.5671 20.8438V6.08864C16.5671 3.2878 14.2889 1.01465 11.4931 1.01465C8.69736 1.01465 6.41914 3.29287 6.41914 6.08864V6.25609C6.41914 7.19478 7.18531 7.96095 8.124 7.96095C9.06269 7.96095 9.83394 7.19478 9.83394 6.25609ZM8.91047 6.08864V6.25609C8.91047 6.68738 8.56036 7.04256 8.124 7.04256C7.69271 7.04256 7.33753 6.69245 7.33753 6.25609V6.08864C7.33753 3.80027 9.19969 1.93812 11.4881 1.93812C13.7764 1.93812 15.6386 3.80027 15.6386 6.08864V20.8489C15.6386 21.4324 15.1616 21.9094 14.5781 21.9094H8.40307C7.81956 21.9094 7.3426 21.4324 7.3426 20.8489V11.9593C7.3426 11.4519 7.66734 10.9952 8.14937 10.8227L11.5794 9.62015C13.0762 9.09245 14.0809 7.6768 14.0809 6.08864C14.0809 4.66285 12.924 3.50598 11.4982 3.50598C10.0724 3.50598 8.91047 4.66285 8.91047 6.08864Z" fill="black"/>
<path d="M8.30078 17.0895C8.30078 18.8552 9.73165 20.281 11.4923 20.281C13.2581 20.281 14.6839 18.8502 14.6839 17.0895C14.6839 15.3237 13.253 13.8979 11.4923 13.8979C9.72657 13.8979 8.30078 15.3288 8.30078 17.0895ZM8.87414 17.0895C8.87414 15.6434 10.0462 14.4713 11.4923 14.4713C12.9384 14.4713 14.1105 15.6434 14.1105 17.0895C14.1105 18.5356 12.9384 19.7077 11.4923 19.7077C10.0462 19.7077 8.87414 18.5356 8.87414 17.0895Z" fill="black"/>
<path d="M11.2644 17.0895L10.0974 15.9224C10.0365 15.8615 10.0365 15.755 10.0974 15.6941C10.1583 15.6332 10.2649 15.6332 10.3258 15.6941L11.4928 16.8611L12.6598 15.6941C12.7207 15.6332 12.8272 15.6332 12.8881 15.6941C12.949 15.755 12.949 15.8615 12.8881 15.9224L11.7211 17.0895L12.8881 18.2565C12.949 18.3174 12.949 18.4239 12.8881 18.4848C12.8577 18.5153 12.8171 18.5305 12.7714 18.5305C12.7308 18.5305 12.6902 18.5153 12.6547 18.4848L11.4877 17.3178L10.3207 18.4848C10.2902 18.5153 10.2496 18.5305 10.2091 18.5305C10.1685 18.5305 10.1279 18.5153 10.0974 18.4848C10.0365 18.4239 10.0365 18.3174 10.0974 18.2565L11.2644 17.0895Z" fill="black"/>
</svg>
