<svg width="24" height="24" viewBox="0 0 24 24" fill="none" xmlns="http://www.w3.org/2000/svg">
<path d="M8.47031 9.35632C8.52656 9.37507 8.58281 9.38913 8.63906 9.38913C8.82656 9.38913 9.00468 9.27194 9.07499 9.08913L9.08437 9.07038C9.17812 8.82663 9.05624 8.55944 8.81249 8.46569C8.56874 8.37194 8.30156 8.49382 8.20781 8.73757L8.20312 8.75632C8.10468 8.99538 8.22656 9.26257 8.47031 9.35632Z" fill="black"/>
<path d="M12.2338 18.5438V22.397H13.1713V18.5438C15.0744 18.3892 16.7057 17.311 17.5682 15.7829C17.7604 15.4876 17.9151 15.1501 17.9947 14.8032C18.1447 14.3251 18.2244 13.8188 18.2244 13.2938C18.2244 12.3048 17.9432 10.922 17.4838 9.53916C17.526 9.36104 16.9541 7.96416 16.926 8.0626C16.851 7.89385 16.776 7.7251 16.701 7.55635C16.1854 6.45947 15.6182 5.57822 15.0135 4.93604C14.2682 4.14385 13.4947 3.74072 12.7025 3.74072C10.9916 3.74072 9.68848 5.60635 8.89629 7.16728C8.7791 7.39697 8.87285 7.67822 9.10254 7.79541C9.33223 7.9126 9.61348 7.81885 9.73067 7.58916C10.6729 5.7376 11.7557 4.67353 12.7025 4.67353C13.7197 4.67353 14.8682 5.86885 15.8526 7.9501C16.7947 9.94697 17.2869 12.1454 17.2869 13.2892C17.2869 15.5298 15.4776 17.3813 13.1713 17.6017V14.686L14.8025 13.0548C14.9854 12.872 14.9854 12.5767 14.8025 12.3938C14.6197 12.211 14.3244 12.211 14.1416 12.3938L13.1713 13.3595V9.3376C13.1713 9.07978 12.9604 8.86885 12.7025 8.86885C12.4447 8.86885 12.2338 9.07978 12.2338 9.3376V15.1688L10.6916 13.6267C10.5088 13.4438 10.2135 13.4438 10.0307 13.6267C9.84786 13.8095 9.84786 14.1048 10.0307 14.2876L12.2338 16.4907V17.6017C9.92754 17.3767 8.11817 15.5298 8.11817 13.2892C8.11817 12.7032 8.24004 11.897 8.46504 11.0157C8.52598 10.7626 8.37598 10.5095 8.12285 10.4485C7.86973 10.3876 7.6166 10.5376 7.55566 10.786C7.31191 11.7563 7.18066 12.6188 7.18066 13.2892C7.18066 16.0454 9.41192 18.3142 12.2338 18.5438Z" fill="black"/>
<path d="M8.19785 8.75166C7.94941 9.53447 7.55566 10.7813 7.55566 10.7813L8.46504 11.011C8.46504 11.011 8.79785 9.9376 9.0791 9.06572C9.36504 8.19385 9.73066 7.58447 9.73066 7.58447L8.89629 7.1626C8.89629 7.1626 8.44629 7.96885 8.19785 8.75166Z" fill="black"/>
</svg>
