<svg width="24" height="24" viewBox="0 0 24 24" fill="none" xmlns="http://www.w3.org/2000/svg">
<g clip-path="url(#clip0)">
<path d="M20.7368 6.9438C19.8726 6.9438 19.4324 6.54093 19.044 6.18547C18.6933 5.86447 18.4163 5.61091 17.8243 5.61091C17.2324 5.61091 16.9553 5.86447 16.6046 6.18547C16.2163 6.54093 15.7761 6.9438 14.9118 6.9438C14.0475 6.9438 13.6074 6.54093 13.219 6.18547C12.8684 5.86447 12.5914 5.61091 11.9994 5.61091C11.4075 5.61091 11.1305 5.86447 10.7799 6.18547C10.3915 6.54093 9.95135 6.9438 9.08708 6.9438C8.22294 6.9438 7.78286 6.54093 7.39453 6.18547C7.04392 5.86447 6.76695 5.61091 6.1751 5.61091C5.5832 5.61091 5.30622 5.86447 4.95556 6.18547C4.56722 6.54093 4.12703 6.9438 3.26283 6.9438C2.39856 6.9438 1.95837 6.54093 1.56998 6.18547C1.21931 5.86447 0.942339 5.61091 0.350377 5.61091C0.15691 5.61091 0 5.45406 0 5.26053C0 5.06707 0.15691 4.91016 0.350377 4.91016C1.21458 4.91016 1.65477 5.31303 2.04316 5.66849C2.39383 5.98949 2.67086 6.24305 3.26283 6.24305C3.85473 6.24305 4.1317 5.98949 4.48237 5.66855C4.87071 5.31303 5.3109 4.91016 6.1751 4.91016C7.03925 4.91016 7.47938 5.31309 7.86771 5.66855C8.21832 5.98955 8.49524 6.24305 9.08708 6.24305C9.67904 6.24305 9.95602 5.98949 10.3067 5.66855C10.695 5.31303 11.1352 4.91016 11.9994 4.91016C12.8637 4.91016 13.3038 5.31303 13.6922 5.66855C14.0429 5.98949 14.3199 6.24305 14.9118 6.24305C15.5038 6.24305 15.7808 5.98949 16.1315 5.66855C16.5199 5.31303 16.9601 4.91016 17.8243 4.91016C18.6886 4.91016 19.1288 5.31303 19.5172 5.66855C19.8678 5.98949 20.1448 6.24305 20.7368 6.24305C21.3288 6.24305 21.6059 5.98949 21.9567 5.66849C22.3451 5.31303 22.7853 4.91016 23.6496 4.91016C23.8431 4.91016 24 5.06707 24 5.26053C24 5.45406 23.8431 5.61091 23.6496 5.61091C23.0575 5.61091 22.7805 5.86447 22.4297 6.18547C22.0413 6.54093 21.6011 6.9438 20.7368 6.9438Z" fill="black"/>
<path d="M20.7368 9.98042C19.8726 9.98042 19.4324 9.57755 19.044 9.22209C18.6933 8.90109 18.4163 8.64753 17.8243 8.64753C17.2324 8.64753 16.9553 8.90109 16.6046 9.22209C16.2163 9.57755 15.7761 9.98042 14.9118 9.98042C14.0475 9.98042 13.6074 9.57755 13.219 9.22209C12.8684 8.90109 12.5914 8.64753 11.9994 8.64753C11.4075 8.64753 11.1305 8.90109 10.7799 9.22209C10.3915 9.57755 9.95135 9.98042 9.08708 9.98042C8.22294 9.98042 7.78286 9.57755 7.39453 9.22209C7.04392 8.90109 6.76695 8.64753 6.1751 8.64753C5.5832 8.64753 5.30622 8.90109 4.95556 9.22209C4.56722 9.57755 4.12703 9.98042 3.26283 9.98042C2.39856 9.98042 1.95837 9.57755 1.56998 9.22209C1.21931 8.90109 0.942339 8.64753 0.350377 8.64753C0.15691 8.64753 0 8.49068 0 8.29715C0 8.10369 0.15691 7.94678 0.350377 7.94678C1.21458 7.94678 1.65477 8.34965 2.04316 8.70511C2.39383 9.02611 2.67086 9.27967 3.26283 9.27967C3.85473 9.27967 4.1317 9.02611 4.48237 8.70517C4.87071 8.34965 5.3109 7.94678 6.1751 7.94678C7.03925 7.94678 7.47938 8.34971 7.86771 8.70517C8.21832 9.02617 8.49524 9.27967 9.08708 9.27967C9.67904 9.27967 9.95602 9.02611 10.3067 8.70517C10.695 8.34965 11.1352 7.94678 11.9994 7.94678C12.8637 7.94678 13.3038 8.34965 13.6922 8.70517C14.0429 9.02611 14.3199 9.27967 14.9118 9.27967C15.5038 9.27967 15.7808 9.02611 16.1315 8.70517C16.5199 8.34965 16.9601 7.94678 17.8243 7.94678C18.6886 7.94678 19.1288 8.34965 19.5172 8.70517C19.8678 9.02611 20.1448 9.27967 20.7368 9.27967C21.3288 9.27967 21.6059 9.02611 21.9567 8.70511C22.3451 8.34965 22.7853 7.94678 23.6496 7.94678C23.8431 7.94678 24 8.10369 24 8.29715C24 8.49068 23.8431 8.64753 23.6496 8.64753C23.0575 8.64753 22.7805 8.90109 22.4297 9.22209C22.0413 9.57755 21.6011 9.98042 20.7368 9.98042Z" fill="black"/>
<path d="M20.7368 13.017C19.8726 13.017 19.4324 12.6142 19.044 12.2587C18.6933 11.9377 18.4163 11.6842 17.8243 11.6842C17.2324 11.6842 16.9553 11.9377 16.6046 12.2587C16.2163 12.6142 15.7761 13.017 14.9118 13.017C14.0475 13.017 13.6074 12.6142 13.219 12.2587C12.8684 11.9377 12.5914 11.6842 11.9994 11.6842C11.4075 11.6842 11.1305 11.9377 10.7799 12.2587C10.3915 12.6142 9.95135 13.017 9.08708 13.017C8.22294 13.017 7.78286 12.6142 7.39453 12.2587C7.04392 11.9377 6.76695 11.6842 6.1751 11.6842C5.5832 11.6842 5.30622 11.9377 4.95556 12.2587C4.56722 12.6142 4.12703 13.017 3.26283 13.017C2.39856 13.017 1.95837 12.6142 1.56998 12.2587C1.21931 11.9377 0.94228 11.6842 0.350377 11.6842C0.15691 11.6842 0 11.5272 0 11.3338C0 11.1403 0.15691 10.9834 0.350377 10.9834C1.21458 10.9834 1.65477 11.3863 2.04316 11.7417C2.39383 12.0627 2.67086 12.3163 3.26283 12.3163C3.85473 12.3163 4.1317 12.0627 4.48237 11.7417C4.87071 11.3863 5.3109 10.9834 6.1751 10.9834C7.03925 10.9834 7.47938 11.3863 7.86771 11.7418C8.21832 12.0627 8.49524 12.3163 9.08708 12.3163C9.67904 12.3163 9.95602 12.0627 10.3067 11.7417C10.695 11.3863 11.1352 10.9834 11.9994 10.9834C12.8637 10.9834 13.3038 11.3863 13.6922 11.7417C14.0429 12.0627 14.3199 12.3163 14.9118 12.3163C15.5038 12.3163 15.7808 12.0627 16.1315 11.7417C16.5199 11.3863 16.9601 10.9834 17.8243 10.9834C18.6886 10.9834 19.1288 11.3863 19.5172 11.7417C19.8678 12.0627 20.1448 12.3163 20.7368 12.3163C21.3288 12.3163 21.6059 12.0627 21.9567 11.7417C22.3451 11.3863 22.7853 10.9834 23.6496 10.9834C23.8431 10.9834 24 11.1403 24 11.3338C24 11.5272 23.8431 11.6842 23.6496 11.6842C23.0575 11.6842 22.7805 11.9377 22.4297 12.2587C22.0413 12.6142 21.6011 13.017 20.7368 13.017Z" fill="black"/>
<path d="M20.7368 16.0537C19.8726 16.0537 19.4324 15.6508 19.044 15.2953C18.6933 14.9743 18.4163 14.7208 17.8243 14.7208C17.2324 14.7208 16.9553 14.9743 16.6046 15.2953C16.2163 15.6508 15.7761 16.0537 14.9118 16.0537C14.0475 16.0537 13.6074 15.6508 13.219 15.2953C12.8684 14.9743 12.5914 14.7208 11.9994 14.7208C11.4075 14.7208 11.1305 14.9743 10.7799 15.2953C10.3915 15.6508 9.95135 16.0537 9.08708 16.0537C8.22294 16.0537 7.78286 15.6508 7.39453 15.2953C7.04392 14.9743 6.76695 14.7208 6.1751 14.7208C5.5832 14.7208 5.30622 14.9743 4.95556 15.2953C4.56722 15.6508 4.12703 16.0537 3.26283 16.0537C2.39856 16.0537 1.95837 15.6508 1.56998 15.2953C1.21931 14.9743 0.94228 14.7208 0.350377 14.7208C0.15691 14.7208 0 14.5639 0 14.3704C0 14.1769 0.15691 14.02 0.350377 14.02C1.21458 14.02 1.65477 14.4229 2.04316 14.7784C2.39383 15.0994 2.67086 15.3529 3.26283 15.3529C3.85473 15.3529 4.1317 15.0994 4.48237 14.7784C4.87071 14.4229 5.3109 14.02 6.1751 14.02C7.03925 14.02 7.47938 14.4229 7.86771 14.7784C8.21832 15.0994 8.49524 15.3529 9.08708 15.3529C9.67904 15.3529 9.95602 15.0994 10.3067 14.7784C10.695 14.4229 11.1352 14.02 11.9994 14.02C12.8637 14.02 13.3038 14.4229 13.6922 14.7784C14.0429 15.0994 14.3199 15.3529 14.9118 15.3529C15.5038 15.3529 15.7808 15.0994 16.1315 14.7784C16.5199 14.4229 16.9601 14.02 17.8243 14.02C18.6886 14.02 19.1288 14.4229 19.5172 14.7784C19.8678 15.0994 20.1448 15.3529 20.7368 15.3529C21.3288 15.3529 21.6059 15.0994 21.9567 14.7784C22.3451 14.4229 22.7853 14.02 23.6496 14.02C23.8431 14.02 24 14.1769 24 14.3704C24 14.5639 23.8431 14.7208 23.6496 14.7208C23.0575 14.7208 22.7805 14.9743 22.4297 15.2953C22.0413 15.6508 21.6011 16.0537 20.7368 16.0537Z" fill="black"/>
<path d="M20.7368 19.0903C19.8726 19.0903 19.4324 18.6874 19.044 18.332C18.6933 18.011 18.4163 17.7574 17.8243 17.7574C17.2324 17.7574 16.9553 18.011 16.6046 18.3319C16.2163 18.6874 15.7761 19.0903 14.9118 19.0903C14.0475 19.0903 13.6074 18.6874 13.219 18.3319C12.8684 18.011 12.5914 17.7574 11.9994 17.7574C11.4075 17.7574 11.1305 18.011 10.7799 18.3319C10.3915 18.6874 9.95135 19.0903 9.08708 19.0903C8.22294 19.0903 7.78286 18.6874 7.39453 18.3319C7.04392 18.011 6.76695 17.7574 6.1751 17.7574C5.5832 17.7574 5.30622 18.011 4.95556 18.3319C4.56722 18.6874 4.12703 19.0903 3.26283 19.0903C2.39856 19.0903 1.95837 18.6874 1.56998 18.3319C1.21931 18.011 0.94228 17.7574 0.350377 17.7574C0.15691 17.7574 0 17.6005 0 17.407C0 17.2134 0.15691 17.0566 0.350377 17.0566C1.21458 17.0566 1.65477 17.4595 2.04316 17.815C2.39383 18.136 2.67086 18.3895 3.26283 18.3895C3.85473 18.3895 4.1317 18.136 4.48237 17.815C4.87071 17.4595 5.3109 17.0566 6.1751 17.0566C7.03925 17.0566 7.47938 17.4595 7.86771 17.815C8.21832 18.136 8.49524 18.3895 9.08708 18.3895C9.67904 18.3895 9.95602 18.136 10.3067 17.815C10.695 17.4595 11.1352 17.0566 11.9994 17.0566C12.8637 17.0566 13.3038 17.4595 13.6922 17.815C14.0429 18.136 14.3199 18.3895 14.9118 18.3895C15.5038 18.3895 15.7808 18.136 16.1315 17.815C16.5199 17.4595 16.9601 17.0566 17.8243 17.0566C18.6886 17.0566 19.1288 17.4595 19.5172 17.815C19.8678 18.136 20.1448 18.3895 20.7368 18.3895C21.3288 18.3895 21.6059 18.136 21.9567 17.815C22.3451 17.4595 22.7853 17.0566 23.6496 17.0566C23.8431 17.0566 24 17.2134 24 17.407C24 17.6005 23.8431 17.7574 23.6496 17.7574C23.0575 17.7574 22.7805 18.011 22.4297 18.332C22.0413 18.6874 21.6011 19.0903 20.7368 19.0903Z" fill="black"/>
</g>
<defs>
<clipPath id="clip0">
<rect width="24" height="24" fill="white"/>
</clipPath>
</defs>
</svg>
