<svg width="156" height="156" viewBox="0 0 156 156" fill="none" xmlns="http://www.w3.org/2000/svg">
<g clip-path="url(#clip0)">
<path d="M134.789 45.1334C129.172 45.1334 126.31 42.5147 123.786 40.2042C121.507 38.1177 119.706 36.4696 115.858 36.4696C112.01 36.4696 110.21 38.1177 107.93 40.2042C105.406 42.5147 102.544 45.1334 96.9268 45.1334C91.309 45.1334 88.4482 42.5147 85.9236 40.2042C83.6443 38.1177 81.844 36.4696 77.9962 36.4696C74.1488 36.4696 72.3485 38.1177 70.0692 40.2042C67.545 42.5147 64.6837 45.1334 59.066 45.1334C53.4491 45.1334 50.5886 42.5147 48.0644 40.2042C45.7855 38.1177 43.9851 36.4696 40.1382 36.4696C36.2908 36.4696 34.4905 38.1177 32.2111 40.2042C29.6869 42.5147 26.8257 45.1334 21.2084 45.1334C15.5907 45.1334 12.7294 42.5147 10.2049 40.2042C7.92553 38.1177 6.1252 36.4696 2.27745 36.4696C1.01992 36.4696 0 35.45 0 34.1921C0 32.9346 1.01992 31.9147 2.27745 31.9147C7.89478 31.9147 10.756 34.5334 13.2806 36.8438C15.5599 38.9304 17.3606 40.5785 21.2084 40.5785C25.0557 40.5785 26.8561 38.9304 29.1354 36.8442C31.6596 34.5334 34.5208 31.9147 40.1382 31.9147C45.7551 31.9147 48.616 34.5337 51.1401 36.8442C53.4191 38.9307 55.219 40.5785 59.066 40.5785C62.9138 40.5785 64.7141 38.9304 66.9935 36.8442C69.5176 34.5334 72.3789 31.9147 77.9962 31.9147C83.6139 31.9147 86.4748 34.5334 88.9993 36.8442C91.2787 38.9304 93.0794 40.5785 96.9268 40.5785C100.775 40.5785 102.575 38.9304 104.855 36.8442C107.379 34.5334 110.24 31.9147 115.858 31.9147C121.476 31.9147 124.337 34.5334 126.862 36.8442C129.141 38.9304 130.941 40.5785 134.789 40.5785C138.637 40.5785 140.438 38.9304 142.718 36.8438C145.243 34.5334 148.104 31.9147 153.723 31.9147C154.98 31.9147 156 32.9346 156 34.1921C156 35.45 154.98 36.4696 153.723 36.4696C149.874 36.4696 148.073 38.1177 145.793 40.2042C143.269 42.5147 140.407 45.1334 134.789 45.1334Z" fill="#17308F"/>
<path d="M134.789 64.8713C129.172 64.8713 126.31 62.2526 123.786 59.9421C121.507 57.8556 119.706 56.2075 115.858 56.2075C112.01 56.2075 110.21 57.8556 107.93 59.9421C105.406 62.2526 102.544 64.8713 96.9268 64.8713C91.309 64.8713 88.4482 62.2526 85.9236 59.9421C83.6443 57.8556 81.844 56.2075 77.9962 56.2075C74.1488 56.2075 72.3485 57.8556 70.0692 59.9421C67.545 62.2526 64.6837 64.8713 59.066 64.8713C53.4491 64.8713 50.5886 62.2526 48.0644 59.9421C45.7855 57.8556 43.9851 56.2075 40.1382 56.2075C36.2908 56.2075 34.4905 57.8556 32.2111 59.9421C29.6869 62.2526 26.8257 64.8713 21.2084 64.8713C15.5907 64.8713 12.7294 62.2526 10.2049 59.9421C7.92553 57.8556 6.1252 56.2075 2.27745 56.2075C1.01992 56.2075 0 55.1879 0 53.93C0 52.6725 1.01992 51.6526 2.27745 51.6526C7.89478 51.6526 10.756 54.2713 13.2806 56.5817C15.5599 58.6683 17.3606 60.3164 21.2084 60.3164C25.0557 60.3164 26.8561 58.6683 29.1354 56.5821C31.6596 54.2713 34.5208 51.6526 40.1382 51.6526C45.7551 51.6526 48.616 54.2716 51.1401 56.5821C53.4191 58.6686 55.219 60.3164 59.066 60.3164C62.9138 60.3164 64.7141 58.6683 66.9935 56.5821C69.5176 54.2713 72.3789 51.6526 77.9962 51.6526C83.6139 51.6526 86.4748 54.2713 88.9993 56.5821C91.2787 58.6683 93.0794 60.3164 96.9268 60.3164C100.775 60.3164 102.575 58.6683 104.855 56.5821C107.379 54.2713 110.24 51.6526 115.858 51.6526C121.476 51.6526 124.337 54.2713 126.862 56.5821C129.141 58.6683 130.941 60.3164 134.789 60.3164C138.637 60.3164 140.438 58.6683 142.718 56.5817C145.243 54.2713 148.104 51.6526 153.723 51.6526C154.98 51.6526 156 52.6725 156 53.93C156 55.1879 154.98 56.2075 153.723 56.2075C149.874 56.2075 148.073 57.8556 145.793 59.9421C143.269 62.2526 140.407 64.8713 134.789 64.8713Z" fill="#17308F"/>
<path d="M134.789 84.6095C129.172 84.6095 126.31 81.9908 123.786 79.6804C121.507 77.5938 119.706 75.9457 115.858 75.9457C112.01 75.9457 110.21 77.5939 107.93 79.68C105.406 81.9908 102.544 84.6095 96.9268 84.6095C91.309 84.6095 88.4482 81.9908 85.9236 79.68C83.6443 77.5939 81.844 75.9457 77.9962 75.9457C74.1488 75.9457 72.3485 77.5939 70.0692 79.68C67.545 81.9908 64.6837 84.6095 59.066 84.6095C53.4491 84.6095 50.5886 81.9908 48.0644 79.68C45.7855 77.5939 43.9851 75.9457 40.1382 75.9457C36.2908 75.9457 34.4905 77.5939 32.2111 79.68C29.6869 81.9908 26.8257 84.6095 21.2084 84.6095C15.5907 84.6095 12.7294 81.9908 10.2049 79.68C7.92553 77.5939 6.12482 75.9457 2.27745 75.9457C1.01992 75.9457 0 74.9258 0 73.6683C0 72.4104 1.01992 71.3908 2.27745 71.3908C7.89478 71.3908 10.756 74.0095 13.2806 76.32C15.5599 78.4065 17.3606 80.0546 21.2084 80.0546C25.0557 80.0546 26.8561 78.4065 29.1354 76.32C31.6596 74.0095 34.5208 71.3908 40.1382 71.3908C45.7551 71.3908 48.616 74.0095 51.1401 76.3204C53.4191 78.4065 55.219 80.0546 59.066 80.0546C62.9138 80.0546 64.7141 78.4065 66.9935 76.32C69.5176 74.0095 72.3789 71.3908 77.9962 71.3908C83.6139 71.3908 86.4748 74.0095 88.9993 76.32C91.2787 78.4065 93.0794 80.0546 96.9268 80.0546C100.775 80.0546 102.575 78.4065 104.855 76.32C107.379 74.0095 110.24 71.3908 115.858 71.3908C121.476 71.3908 124.337 74.0095 126.862 76.32C129.141 78.4065 130.941 80.0546 134.789 80.0546C138.637 80.0546 140.438 78.4065 142.718 76.32C145.243 74.0095 148.104 71.3908 153.723 71.3908C154.98 71.3908 156 72.4104 156 73.6683C156 74.9258 154.98 75.9457 153.723 75.9457C149.874 75.9457 148.073 77.5938 145.793 79.6804C143.269 81.9908 140.407 84.6095 134.789 84.6095Z" fill="#17308F"/>
<path d="M134.789 104.347C129.172 104.347 126.31 101.729 123.786 99.4183C121.507 97.3318 119.706 95.6836 115.858 95.6836C112.01 95.6836 110.21 97.3317 107.93 99.4179C105.406 101.729 102.544 104.347 96.9268 104.347C91.309 104.347 88.4482 101.729 85.9236 99.4179C83.6443 97.3317 81.844 95.6836 77.9962 95.6836C74.1488 95.6836 72.3485 97.3317 70.0692 99.4179C67.545 101.729 64.6837 104.347 59.066 104.347C53.4491 104.347 50.5886 101.729 48.0644 99.4179C45.7855 97.3317 43.9851 95.6836 40.1382 95.6836C36.2908 95.6836 34.4905 97.3317 32.2111 99.4179C29.6869 101.729 26.8257 104.347 21.2084 104.347C15.5907 104.347 12.7294 101.729 10.2049 99.4179C7.92553 97.3317 6.12482 95.6836 2.27745 95.6836C1.01992 95.6836 0 94.6637 0 93.4062C0 92.1483 1.01992 91.1287 2.27745 91.1287C7.89478 91.1287 10.756 93.7474 13.2806 96.0579C15.5599 98.1444 17.3606 99.7925 21.2084 99.7925C25.0557 99.7925 26.8561 98.1444 29.1354 96.0579C31.6596 93.7474 34.5208 91.1287 40.1382 91.1287C45.7551 91.1287 48.616 93.7474 51.1401 96.0583C53.4191 98.1444 55.219 99.7925 59.066 99.7925C62.9138 99.7925 64.7141 98.1444 66.9935 96.0579C69.5176 93.7474 72.3789 91.1287 77.9962 91.1287C83.6139 91.1287 86.4748 93.7474 88.9993 96.0579C91.2787 98.1444 93.0794 99.7925 96.9268 99.7925C100.775 99.7925 102.575 98.1444 104.855 96.0579C107.379 93.7474 110.24 91.1287 115.858 91.1287C121.476 91.1287 124.337 93.7474 126.862 96.0579C129.141 98.1444 130.941 99.7925 134.789 99.7925C138.637 99.7925 140.438 98.1444 142.718 96.0579C145.243 93.7474 148.104 91.1287 153.723 91.1287C154.98 91.1287 156 92.1483 156 93.4062C156 94.6637 154.98 95.6836 153.723 95.6836C149.874 95.6836 148.073 97.3318 145.793 99.4183C143.269 101.729 140.407 104.347 134.789 104.347Z" fill="#17308F"/>
<path d="M134.789 124.085C129.172 124.085 126.31 121.467 123.786 119.156C121.507 117.07 119.706 115.422 115.858 115.422C112.01 115.422 110.21 117.07 107.93 119.156C105.406 121.467 102.544 124.085 96.9268 124.085C91.309 124.085 88.4482 121.467 85.9236 119.156C83.6443 117.07 81.844 115.422 77.9962 115.422C74.1488 115.422 72.3485 117.07 70.0692 119.156C67.545 121.467 64.6837 124.085 59.066 124.085C53.4491 124.085 50.5886 121.467 48.0644 119.156C45.7855 117.07 43.9851 115.422 40.1382 115.422C36.2908 115.422 34.4905 117.07 32.2111 119.156C29.6869 121.467 26.8257 124.085 21.2084 124.085C15.5907 124.085 12.7294 121.467 10.2049 119.156C7.92553 117.07 6.12482 115.422 2.27745 115.422C1.01992 115.422 0 114.402 0 113.144C0 111.886 1.01992 110.867 2.27745 110.867C7.89478 110.867 10.756 113.485 13.2806 115.796C15.5599 117.882 17.3606 119.53 21.2084 119.53C25.0557 119.53 26.8561 117.882 29.1354 115.796C31.6596 113.485 34.5208 110.867 40.1382 110.867C45.7551 110.867 48.616 113.485 51.1401 115.796C53.4191 117.882 55.219 119.53 59.066 119.53C62.9138 119.53 64.7141 117.882 66.9935 115.796C69.5176 113.485 72.3789 110.867 77.9962 110.867C83.6139 110.867 86.4748 113.485 88.9993 115.796C91.2787 117.882 93.0794 119.53 96.9268 119.53C100.775 119.53 102.575 117.882 104.855 115.796C107.379 113.485 110.24 110.867 115.858 110.867C121.476 110.867 124.337 113.485 126.862 115.796C129.141 117.882 130.941 119.53 134.789 119.53C138.637 119.53 140.438 117.882 142.718 115.796C145.243 113.485 148.104 110.867 153.723 110.867C154.98 110.867 156 111.886 156 113.144C156 114.402 154.98 115.422 153.723 115.422C149.874 115.422 148.073 117.07 145.793 119.156C143.269 121.467 140.407 124.085 134.789 124.085Z" fill="#17308F"/>
</g>
<defs>
<clipPath id="clip0">
<rect width="156" height="156" fill="white"/>
</clipPath>
</defs>
</svg>
