<svg width="24" height="24" viewBox="0 0 24 24" fill="none" xmlns="http://www.w3.org/2000/svg">
<path d="M5.97925 7.78252H7.9559C8.19243 7.78252 8.38426 7.59069 8.38426 7.35417C8.38426 7.11764 8.19243 6.92581 7.9559 6.92581H5.97925L7.37698 5.52809C7.54425 5.36081 7.54425 5.08959 7.37698 4.92239C7.20971 4.75505 6.93841 4.75505 6.77121 4.92239L5.37349 6.32004V4.3434C5.37349 4.1068 5.18165 3.91504 4.94513 3.91504C4.70861 3.91504 4.51677 4.1068 4.51677 4.3434V6.32012L3.11905 4.92232C2.95178 4.75497 2.68048 4.75497 2.51328 4.92232C2.34601 5.08959 2.34601 5.36081 2.51328 5.52801L3.91101 6.92574H1.93422C1.69769 6.92574 1.50586 7.11757 1.50586 7.3541C1.50586 7.59062 1.69769 7.78245 1.93422 7.78245H3.91101L2.51328 9.18018C2.34601 9.34745 2.34601 9.61867 2.51328 9.78587C2.59688 9.86954 2.70654 9.91138 2.8162 9.91138C2.92586 9.91138 3.03545 9.86954 3.11912 9.78587L4.51685 8.38815V10.3649C4.51685 10.6015 4.70861 10.7933 4.9452 10.7933C5.1818 10.7933 5.37356 10.6015 5.37356 10.3649V8.38815L6.77128 9.78587C6.85488 9.86954 6.96454 9.91138 7.0742 9.91138C7.18386 9.91138 7.29345 9.86954 7.37712 9.78587C7.54439 9.6186 7.54439 9.34738 7.37712 9.18018L5.97925 7.78252Z" fill="black"/>
<path d="M23.9846 1.92475C23.922 1.69665 23.6863 1.56265 23.4581 1.62526L16.6926 3.48411C16.5313 3.52837 16.4107 3.66245 16.3835 3.82751L15.8374 7.14091H9.88389C9.77173 4.51295 7.59961 2.40951 4.94466 2.40951C2.21817 2.40944 0 4.62753 0 7.35409C0 10.0778 2.21353 12.294 4.93609 12.2987L5.4821 21.9862C5.49488 22.213 5.68257 22.3905 5.90981 22.3905H7.38079C7.54406 22.3905 7.69313 22.2976 7.76517 22.1511C7.88268 21.9123 8.11999 21.7639 8.3845 21.7639C8.64908 21.7639 8.88639 21.9123 9.00397 22.1512C9.07601 22.2976 9.22507 22.3905 9.38828 22.3905H10.5526C10.7158 22.3905 10.8649 22.2976 10.9369 22.1512C11.0545 21.9123 11.2918 21.7639 11.5563 21.7639C11.8208 21.7639 12.0581 21.9123 12.1757 22.1512C12.2478 22.2976 12.3968 22.3905 12.56 22.3905H13.7242C13.8874 22.3905 14.0364 22.2977 14.1085 22.1513C14.2262 21.9123 14.4637 21.7639 14.7281 21.7639C14.9925 21.7639 15.2298 21.9123 15.3474 22.1512C15.4195 22.2976 15.5686 22.3905 15.7318 22.3905H17.2028C17.4301 22.3905 17.6177 22.213 17.6305 21.9862L18.4416 7.59333C18.4482 7.47574 18.4062 7.36052 18.3252 7.27499C18.2443 7.18939 18.1317 7.14084 18.0139 7.14084H16.7056L17.1841 4.23744L23.6851 2.4512C23.9132 2.38859 24.0473 2.15285 23.9846 1.92475ZM15.6962 7.99755L15.1489 11.3182H7.8971C8.94279 10.5373 9.66907 9.35266 9.84605 7.99755H15.6962V7.99755ZM7.78094 15.7569C8.01561 15.7504 8.21544 15.9341 8.22344 16.1706L8.2572 17.1732C8.26513 17.4097 8.07994 17.6077 7.84348 17.6157C7.83863 17.6159 7.8337 17.6159 7.82878 17.6159C7.59889 17.6159 7.40877 17.4335 7.40092 17.202L7.36715 16.1994C7.3593 15.963 7.54449 15.7649 7.78094 15.7569ZM7.31746 14.7243L7.24443 12.558C7.23643 12.3216 7.42162 12.1234 7.65808 12.1154C7.89489 12.1079 8.09264 12.2926 8.10064 12.5291L8.17367 14.6955C8.18167 14.9319 7.99648 15.13 7.76003 15.138C7.7551 15.1382 7.75017 15.1382 7.74532 15.1382C7.51536 15.1382 7.32524 14.9558 7.31746 14.7243ZM4.94466 11.4421C2.69058 11.4421 0.856712 9.60817 0.856712 7.35402C0.856712 5.09994 2.69058 3.26608 4.94466 3.26608C7.19874 3.26608 9.0326 5.09994 9.0326 7.35402C9.0326 9.60824 7.19874 11.4421 4.94466 11.4421ZM16.7979 21.5337H15.9709C15.6823 21.1417 15.227 20.9073 14.7281 20.9073C14.2293 20.9073 13.7739 21.1417 13.4852 21.5337H12.7993C12.5107 21.1417 12.0554 20.9073 11.5563 20.9073C11.0574 20.9073 10.602 21.1417 10.3135 21.5337H9.62751C9.33895 21.1417 8.88353 20.9073 8.38457 20.9073C7.88561 20.9073 7.43019 21.1417 7.14169 21.5337H6.31475L6.21794 19.8163H6.75931L16.8616 20.4029L16.7979 21.5337ZM17.5607 7.99755L16.943 18.9595H6.16968L5.79009 12.2251C5.99027 12.1904 6.18653 12.1443 6.37779 12.0864L6.79101 17.9391C6.80686 18.1634 6.99341 18.3372 7.2183 18.3372H15.8946C16.1194 18.3372 16.3061 18.1633 16.3219 17.9391L16.7568 11.7767C16.7651 11.6581 16.7239 11.5414 16.6428 11.4545C16.5618 11.3675 16.4483 11.3182 16.3294 11.3182H16.0172L16.5645 7.99755H17.5607V7.99755Z" fill="black"/>
</svg>
