<svg width="24" height="24" viewBox="0 0 24 24" fill="none" xmlns="http://www.w3.org/2000/svg">
<path d="M23.7601 5.77232L15.9738 3.74953C15.9709 3.74878 15.968 3.74846 15.9653 3.74782C15.9594 3.74654 15.9536 3.74537 15.9477 3.74435C15.9416 3.74334 15.9355 3.74237 15.9294 3.74163C15.9234 3.74093 15.9174 3.7405 15.9114 3.74018C15.9053 3.73986 15.8992 3.7396 15.8932 3.7396C15.8871 3.7396 15.881 3.73986 15.8749 3.74018C15.8689 3.7405 15.8629 3.74098 15.8569 3.74163C15.8508 3.74237 15.8448 3.74328 15.8386 3.74435C15.8327 3.74537 15.8269 3.74649 15.821 3.74782C15.8182 3.74852 15.8153 3.74878 15.8125 3.74953L8.10685 5.75143L0.401096 3.74953C0.305055 3.72464 0.202925 3.74553 0.124404 3.80626C0.0459372 3.86694 0 3.96052 0 4.05977V17.9174C0 18.0634 0.0986582 18.1909 0.239888 18.2277L8.02625 20.2504C8.0326 20.252 8.03901 20.2529 8.04537 20.2541C8.05007 20.255 8.05472 20.2561 8.05947 20.2569C8.07523 20.2592 8.09104 20.2607 8.10685 20.2607C8.12266 20.2607 8.13847 20.2592 8.15423 20.2569C8.15898 20.2561 8.16363 20.255 8.16833 20.2541C8.17469 20.2529 8.1811 20.252 8.18745 20.2504L15.8932 18.2485L23.5989 20.2504C23.6255 20.2573 23.6526 20.2606 23.6795 20.2606C23.7497 20.2606 23.8188 20.2375 23.8756 20.1937C23.9541 20.133 24 20.0393 24 19.9402V6.08255C24 5.93662 23.9013 5.80907 23.7601 5.77232ZM15.5727 9.62998L14.2051 7.52856C14.1525 7.44774 14.0663 7.39492 13.9705 7.38471C13.8746 7.37446 13.7792 7.408 13.7108 7.47584L8.42734 12.716V6.33045L15.5727 4.47416L15.5727 9.62998ZM0.640984 4.47416L7.78636 6.33045V12.6177L3.88378 8.43347C3.91615 8.33861 3.93452 8.23722 3.93452 8.13157C3.93452 7.61387 3.51334 7.19263 2.99564 7.19263C2.47794 7.19263 2.05676 7.61387 2.05676 8.13157C2.05676 8.64922 2.47794 9.0704 2.99564 9.0704C3.17148 9.0704 3.33558 9.02093 3.47638 8.93648L7.78636 13.5575V19.5258L0.640984 17.6695V4.47416ZM8.42734 13.6188L13.8827 8.20817L15.5727 10.8051V17.6695L8.42734 19.5258V13.6188ZM23.359 19.5258L16.2136 17.6695V11.5622L20.1595 16.0835C20.1118 16.1959 20.0854 16.3195 20.0854 16.4491C20.0854 16.9668 20.5066 17.3881 21.0243 17.3881C21.542 17.3881 21.9632 16.9668 21.9632 16.4491C21.9632 15.9315 21.542 15.5103 21.0243 15.5103C20.8714 15.5103 20.7273 15.5478 20.5996 15.613L16.2136 10.5874V4.47416L23.359 6.33045V19.5258Z" fill="black"/>
</svg>
