<svg width="26" height="26" viewBox="0 0 26 26" fill="none" xmlns="http://www.w3.org/2000/svg">
<path d="M22.4307 21.4847H21.8174L20.4647 18.7069V17.7404C20.4647 17.5706 20.3298 17.4356 20.1602 17.4356H19.5382L21.8913 13.3516C21.974 13.2079 21.9261 13.0207 21.7782 12.9336L20.8822 12.4155C20.7387 12.3328 20.5517 12.3807 20.4647 12.5287L17.6375 17.4356H16.1456V17.0568L16.1412 16.3689V13.2123C16.898 13.1078 17.5592 12.6245 17.8897 11.9366C18.1725 12.0759 18.4813 12.1456 18.7988 12.1456C19.9471 12.1456 20.8866 11.2095 20.8866 10.0557C20.8866 9.01073 20.1167 8.14429 19.1163 7.99191C19.1598 7.77421 19.1816 7.5478 19.1816 7.32575C19.1816 5.47969 17.681 3.98193 15.8411 3.98193C13.9969 3.98193 12.5006 5.48404 12.5006 7.32575C12.5006 7.4346 12.505 7.54345 12.518 7.6523C11.3828 7.97449 10.5825 9.01508 10.5825 10.2255C10.5825 10.2255 10.3954 11.314 11.3001 12.2675C12.2049 13.2166 13.4532 12.8988 13.4532 12.8988C13.762 12.877 14.0665 12.7986 14.3492 12.6724C14.6841 12.9685 15.1017 13.1557 15.5453 13.2166V16.3819V17.096V17.4486H4.2669C4.09727 17.4486 3.96243 17.5836 3.96243 17.7534V18.7897C3.96243 18.9595 4.09727 19.0944 4.2669 19.0944H5.2499L4.07987 21.4847H3.46658C3.29695 21.4847 3.16211 21.6197 3.16211 21.7895C3.16211 21.9593 3.29695 22.0943 3.46658 22.0943H22.4307C22.6003 22.0943 22.7351 21.9593 22.7351 21.7895C22.7351 21.6241 22.6003 21.4847 22.4307 21.4847ZM15.5279 8.645V10.5868V10.9439L14.3579 9.77266C14.2404 9.65511 14.0491 9.65511 13.9316 9.77266C13.8142 9.89022 13.8142 10.0818 13.9316 10.1993L15.5105 11.7798C15.5149 11.7842 15.5236 11.7929 15.5279 11.7972V12.7072C15.18 12.6419 14.8624 12.4721 14.6102 12.2022C14.5145 12.102 14.3622 12.0759 14.2404 12.1456C13.9925 12.2849 13.7185 12.3676 13.4358 12.3937C13.4358 12.3937 12.9921 12.5069 12.344 12.2283C11.696 11.9496 11.5568 11.536 11.5568 11.536C11.3045 11.1833 11.1697 10.7654 11.1697 10.33C11.1697 9.3155 11.8917 8.45778 12.8877 8.28797C12.966 8.27491 13.04 8.23137 13.0835 8.16171C13.1313 8.0964 13.1487 8.01368 13.1313 7.9353C13.1009 7.76986 13.0835 7.60005 13.0835 7.4346C13.0835 5.92379 14.31 4.69598 15.8193 4.69598C17.3286 4.69598 18.5552 5.92379 18.5552 7.4346C18.5552 7.72632 18.5074 8.01368 18.4204 8.28797C18.3899 8.38376 18.4073 8.4839 18.4682 8.56662C18.5291 8.645 18.6205 8.68853 18.7205 8.68853C18.7422 8.68853 18.7596 8.68853 18.7814 8.68853C19.5991 8.68853 20.2646 9.35469 20.2646 10.1732C20.2646 10.9918 19.5991 11.6579 18.7814 11.6579C18.4595 11.6579 18.1551 11.5578 17.8984 11.3662C17.8201 11.3052 17.7157 11.2922 17.6201 11.3227C17.5244 11.3531 17.4548 11.4315 17.4243 11.5273C17.2503 12.1456 16.7371 12.6027 16.1238 12.7159V10.7175L17.6244 9.21536C17.7418 9.0978 17.7418 8.90623 17.6244 8.78868C17.507 8.67112 17.3156 8.67112 17.1982 8.78868L16.1238 9.8641V8.6537C16.1238 8.48825 15.989 8.34893 15.8193 8.34893C15.6628 8.34022 15.5279 8.47519 15.5279 8.645ZM19.8557 18.0495V18.4762H18.9423L19.1859 18.0495H19.8557ZM20.8431 13.1034L21.2128 13.3168L18.2377 18.4762H17.7462L20.8431 13.1034ZM4.57137 18.4762V18.0495H17.2851L17.0416 18.4762H4.57137ZM15.5366 21.4847H4.7584L5.92843 19.0857H15.541V21.4847H15.5366ZM16.1456 21.4847V19.0857H19.9688L21.1389 21.4847H16.1456Z" fill="black"/>
</svg>
