<svg width="24" height="24" viewBox="0 0 24 24" fill="none" xmlns="http://www.w3.org/2000/svg">
<path d="M5.2002 19.7999H18.7335V21.7332H5.2002V19.7999ZM17.7669 8.1999C17.7669 5.00024 15.1665 2.3999 11.9669 2.3999C8.7672 2.3999 6.16686 5.00024 6.16686 8.1999C6.16686 12.5499 11.9669 18.8332 11.9669 18.8332C11.9669 18.8332 17.7669 12.5499 17.7669 8.1999ZM8.1002 8.1999C8.1002 6.06357 9.83053 4.33324 11.9669 4.33324C14.1032 4.33324 15.8335 6.06357 15.8335 8.1999C15.8335 10.2589 13.8229 13.4779 11.9669 15.8462C10.1109 13.4876 8.1002 10.2589 8.1002 8.1999ZM11.9669 6.26657C10.9035 6.26657 10.0335 7.13657 10.0335 8.1999C10.0335 9.26324 10.9035 10.1332 11.9669 10.1332C13.0399 10.1332 13.9002 9.26324 13.9002 8.1999C13.9002 7.13657 13.0302 6.26657 11.9669 6.26657Z" fill="black"/>
</svg>
