<svg width="24" height="24" viewBox="0 0 24 24" fill="none" xmlns="http://www.w3.org/2000/svg">
<path d="M23.439 12.4166C23.2748 12.0839 19.7618 6.29308 19.6727 6.14847C19.017 5.08422 17.8802 4.44888 16.632 4.44888C16.4539 4.44888 16.279 4.46238 16.1079 4.48769C16.1077 4.48736 16.1072 4.48666 16.1071 4.48647C15.8046 3.9963 15.2811 3.70361 14.7067 3.70361C13.7997 3.70361 13.0618 4.44147 13.0618 5.34845V8.22245H10.9381V5.34845C10.9381 4.44152 10.2003 3.70361 9.29328 3.70361C8.71991 3.70361 8.19734 3.99522 7.89219 4.48769C7.72105 4.46238 7.54606 4.44888 7.36794 4.44888C6.11971 4.44888 4.98299 5.08427 4.32716 6.14856C4.31812 6.16323 4.2906 6.20795 3.62957 7.31612C3.51595 7.50662 3.57829 7.75318 3.76874 7.86681C3.95924 7.98039 4.2058 7.91818 4.31943 7.72764C4.86337 6.81583 4.99583 6.59476 5.01116 6.56987C5.51957 5.74478 6.40063 5.25217 7.36799 5.25217C8.89367 5.25217 10.1348 6.49337 10.1348 8.01901V8.01925V11.9773C9.17248 10.4079 7.44106 9.3587 5.46908 9.3587C4.57851 9.3587 3.73706 9.57282 2.99329 9.95199C3.18431 9.63151 3.3861 9.29293 3.5886 8.95337C3.70218 8.76282 3.63984 8.51626 3.44929 8.40268C3.25874 8.2891 3.01223 8.35145 2.8986 8.54199C2.0452 9.97327 0.701999 12.1209 0.532311 12.4755C0.19125 13.1883 0 13.9861 0 14.8278C0 17.8435 2.45343 20.2969 5.46908 20.2969C8.48473 20.2969 10.9381 17.8435 10.9381 14.8278V13.7606H13.0618V14.8278C13.0618 17.8435 15.5153 20.2969 18.5309 20.2969C21.5465 20.2969 24 17.8435 24 14.8278C24 13.9629 23.7981 13.1444 23.439 12.4166ZM10.1348 5.76588C9.76376 5.31105 9.28311 4.94927 8.73341 4.72085C8.88547 4.58444 9.08262 4.50691 9.29333 4.50691C9.75734 4.50691 10.1348 4.88439 10.1348 5.34841V5.76588ZM5.46908 19.4935C2.89635 19.4935 0.803295 17.4005 0.803295 14.8278C0.803295 12.2551 2.89635 10.162 5.46908 10.162C8.04181 10.162 10.1348 12.2551 10.1348 14.8278C10.1348 17.4005 8.04177 19.4935 5.46908 19.4935ZM10.9381 11.4151V9.0257H13.0618V11.4151H10.9381V11.4151ZM13.0618 12.9573H10.9381V12.2184H13.0618V12.9573ZM13.8651 5.34845C13.8651 4.88444 14.2426 4.50696 14.7066 4.50696C14.918 4.50696 15.1158 4.585 15.2671 4.72071C14.7172 4.94913 14.2363 5.311 13.8651 5.76592V5.34845ZM13.8651 8.01925V8.01901C13.8651 6.49333 15.1063 5.25217 16.632 5.25217C17.5994 5.25217 18.4804 5.74483 18.9888 6.56987C19.037 6.64811 20.0409 8.33162 21.0067 9.95199C20.2629 9.57277 19.4214 9.35865 18.5308 9.35865C16.5588 9.35865 14.8274 10.4079 13.8651 11.9773V8.01925H13.8651ZM18.5309 19.4935C15.9582 19.4935 13.8652 17.4005 13.8652 14.8277C13.8652 12.255 15.9582 10.1619 18.5309 10.1619C21.1036 10.1619 23.1967 12.255 23.1967 14.8277C23.1967 17.4005 21.1036 19.4935 18.5309 19.4935Z" fill="black"/>
<path d="M22.0524 13.5618C21.9773 13.3531 21.7473 13.2447 21.5385 13.3197C21.3298 13.3948 21.2214 13.6248 21.2965 13.8336C21.4107 14.1515 21.4687 14.4859 21.4687 14.8275C21.4687 16.4473 20.1509 17.7652 18.531 17.7652C16.9112 17.7652 15.5933 16.4473 15.5933 14.8275C15.5933 13.2076 16.9112 11.8898 18.531 11.8898C19.344 11.8898 20.128 12.2313 20.6822 12.8268C20.8333 12.9891 21.0874 12.9983 21.2499 12.8471C21.4122 12.696 21.4214 12.4419 21.2703 12.2794C20.5647 11.5213 19.5663 11.0864 18.531 11.0864C16.4682 11.0864 14.79 12.7646 14.79 14.8274C14.79 16.8902 16.4682 18.5684 18.531 18.5684C20.5939 18.5684 22.272 16.8902 22.272 14.8274C22.2721 14.3931 22.1981 13.9672 22.0524 13.5618Z" fill="black"/>
<path d="M5.46853 11.0864C3.40571 11.0864 1.72754 12.7646 1.72754 14.8274C1.72754 16.8902 3.40571 18.5684 5.46853 18.5684C7.53136 18.5684 9.20952 16.8902 9.20952 14.8274C9.20952 12.7646 7.53131 11.0864 5.46853 11.0864ZM5.46853 17.7651C3.84868 17.7651 2.53083 16.4473 2.53083 14.8274C2.53083 13.2075 3.84863 11.8897 5.46853 11.8897C7.08843 11.8897 8.40623 13.2075 8.40623 14.8274C8.40623 16.4473 7.08834 17.7651 5.46853 17.7651Z" fill="black"/>
</svg>
