<?xml version="1.0" encoding="utf-8"?>
<!-- Generator: Adobe Illustrator 23.0.3, SVG Export Plug-In . SVG Version: 6.00 Build 0)  -->
<svg version="1.1" id="Layer_1" xmlns="http://www.w3.org/2000/svg" xmlns:xlink="http://www.w3.org/1999/xlink" x="0px" y="0px"
	 viewBox="0 0 30 30" style="enable-background:new 0 0 30 30;" xml:space="preserve">
<style type="text/css">
	.st0{fill:#020202;}
	.st1{fill:#010101;}
</style>
<path class="st0" d="M15.6,25.5c-1.1,0-2.2-0.3-3.1-1c-2.1-1.5-3.5-4-3.7-6.6l-0.1-1.1c0,0,0,0,0,0V8.9c0-0.1,0.1-0.3,0.3-0.3h13.5
	c0.1,0,0.3,0.1,0.3,0.3v7.8c0,0,0,0,0,0l-0.2,1.1c-0.4,2.6-1.7,5-3.7,6.5C17.9,25.1,16.7,25.5,15.6,25.5z M9.2,16.7l0.1,1.1
	c0.3,2.5,1.6,4.8,3.5,6.3c1.7,1.3,4,1.2,5.7-0.1c1.9-1.5,3.2-3.7,3.5-6.2l0.2-1.1V9.2h-13V16.7z"/>
<path class="st0" d="M20.7,21.8c-0.1,0-0.1,0-0.2-0.1L8.7,9.1C8.6,9,8.6,8.8,8.7,8.7c0.1-0.1,0.3-0.1,0.4,0l11.8,12.7
	c0.1,0.1,0.1,0.3,0,0.4C20.8,21.8,20.8,21.8,20.7,21.8z"/>
<path class="st1" d="M13.2,20.6c0,0-1.6-1.1-1.9-1.2c-0.3-0.1-0.8,0.3-0.8,0.3s-2.1,1.5-2.9,2s-1.7-0.4-2.1-0.6
	c-0.4-0.2-0.9-0.7-1.7-0.3c-0.2,0.1-0.3,0.2-0.4,0.3c-0.6,0.6-1,1.4-1,1.4s-0.2,0.4-0.4,0.3c-0.3-0.1-0.2-0.4-0.2-0.4
	C2,21.9,2.6,21.4,3,21c0.4-0.5,1-0.8,1.7-0.7c0.3,0.1,0.6,0.1,0.9,0.3s0.5,0.4,0.8,0.6c0.1,0,0.4,0.2,0.5,0.2
	c0.4,0.1,0.6-0.1,0.7-0.2c0,0,0.1,0,0.1-0.1l3.1-2.2c0,0,0.2-0.3,0.6-0.2c0.4,0.1,2.2,1.4,2.3,1.4c0.1,0.1,0.3,0.3,0.1,0.5
	C13.6,20.9,13.2,20.6,13.2,20.6z"/>
<path class="st1" d="M3.2,25.2l-0.9,1.4c0,0-0.2,0.3,0.1,0.4c0.3,0.1,0.5-0.3,0.5-0.3s0.8-1.2,1-1.5s0.7-0.7,0.9-0.7
	c0.3,0,0.7,0.1,1.2,0.4s2.1,1.3,2.1,1.3s0.4,0.3,0.8,0.3c0.4-0.1,0.7-0.6,0.7-0.6l1.9-2.3l1-0.9c0,0,0.4-0.3,0.7-0.2
	s0.6,0.3,0.6,0.3l1.3,1.2c0,0,0.4,0.3,0.5,0.3c0.1,0,0.2,0.1,0.3,0c0.1-0.1,0.1-0.3,0.1-0.3l-0.4-0.4l-1.2-1l-0.7-0.5
	c0,0-0.7-0.6-1.4,0c-0.7,0.6-1.2,1.1-1.2,1.1l-1.3,1.6l-0.6,0.6c0,0-0.2,0.4-0.4,0.3S8.3,25.7,8,25.5c-0.4-0.2-1.2-0.7-1.2-0.7
	S6,24.1,5.3,24c-0.7-0.2-0.9-0.1-1.3,0.3C3.7,24.6,3.2,25.2,3.2,25.2z"/>
<path class="st1" d="M23.5,8.4c0,0-0.1,0-0.1-0.1c-0.1-0.1-0.1-0.2,0-0.3L26,5.2c0.1-0.1,0.2-0.1,0.3,0c0.1,0.1,0.1,0.2,0,0.3
	l-2.6,2.9C23.6,8.4,23.6,8.4,23.5,8.4z"/>
<path class="st1" d="M21.7,7.3C21.7,7.3,21.7,7.3,21.7,7.3c-0.1,0-0.2-0.1-0.2-0.2l0.1-3.9c0-0.1,0.1-0.2,0.2-0.2
	c0.1,0,0.2,0.1,0.2,0.2l-0.1,3.9C21.9,7.2,21.8,7.3,21.7,7.3z"/>
<path class="st1" d="M24.1,10.2c-0.1,0-0.2-0.1-0.2-0.2c0-0.1,0-0.2,0.1-0.2l3.8-0.9c0.1,0,0.2,0,0.2,0.1c0,0.1,0,0.2-0.1,0.2
	L24.1,10.2C24.1,10.2,24.1,10.2,24.1,10.2z"/>
<path class="st1" d="M25.4,12.4C25.3,12.4,25.3,12.4,25.4,12.4l-1.8-0.6c-0.1,0-0.2-0.1-0.1-0.2s0.1-0.2,0.2-0.1l1.7,0.6
	c0.1,0,0.2,0.1,0.1,0.2C25.5,12.4,25.4,12.4,25.4,12.4z"/>
<path class="st1" d="M19.7,7.4c-0.1,0-0.1,0-0.2-0.1l-1-1.3c-0.1-0.1,0-0.2,0-0.3c0.1-0.1,0.2,0,0.3,0l1,1.3c0.1,0.1,0,0.2,0,0.3
	C19.8,7.4,19.8,7.4,19.7,7.4z"/>
</svg>
