<?xml version="1.0" encoding="utf-8"?>
<!-- Generator: Adobe Illustrator 23.0.3, SVG Export Plug-In . SVG Version: 6.00 Build 0)  -->
<svg version="1.1" id="Layer_1" xmlns="http://www.w3.org/2000/svg" xmlns:xlink="http://www.w3.org/1999/xlink" x="0px" y="0px"
	 viewBox="0 0 400 400" style="enable-background:new 0 0 400 400;" xml:space="preserve">
<style type="text/css">
	.st0{fill:none;stroke:#010101;stroke-width:4;stroke-linecap:round;stroke-linejoin:round;stroke-miterlimit:10;}
	.st1{fill:none;stroke:#000000;stroke-width:3;stroke-linecap:round;stroke-linejoin:round;stroke-miterlimit:10;}
</style>
<path class="st0" d="M146.5,143.8H250v59.4l-1.2,8.6c-2.7,19.6-12.7,37.2-27.8,48.8l0,0c-13.7,10.5-32,10.7-45.8,0.5l0,0
	c-15.5-11.4-25.7-29.4-27.8-49.4l-0.9-8.4V143.8z"/>
<line class="st0" x1="146.5" y1="143.8" x2="236.8" y2="240.6"/>
<path d="M179.6,233c0,0-12.4-8.3-14.6-9.4c-2.1-1-6.2,2.4-6.2,2.4s-16,11.2-21.9,15.6c-5.9,4.4-13.2-2.8-15.9-4.4
	c-2.7-1.6-6.7-5.3-13.1-2.6c-1.2,0.5-2.1,1.3-3,2.3c-4.3,4.8-7.9,10.6-7.9,10.6s-1.2,2.9-2.7,2.4c-2.3-0.7-1.4-2.7-1.4-2.7
	c0.8-3.8,5.6-7.6,8.2-11c3.1-3.9,8-6.3,12.7-5.7c2.5,0.4,4.8,1.1,6.9,2.6c2.1,1.5,4,3.2,6.3,4.4c0.6,0.3,2.9,1.6,3.5,1.9
	c2.8,0.9,4.6-0.8,5.5-1.2c0.2-0.1,0.4-0.3,0.6-0.4l23.4-17.1c0,0,1.8-2.1,4.7-1.3c2.9,0.8,17.1,10.4,17.8,10.9
	c0.8,0.6,2.2,2.2,1,3.6C182.4,235.1,179.6,233,179.6,233z"/>
<path d="M102.8,268l-6.9,10.8c0,0-1.2,2.4,1.1,3.3c2.3,1,3.6-2.6,3.6-2.6s5.8-9.2,7.9-11.5c2.1-2.3,5-5.5,6.9-5.4c2,0.1,5.5,1,9,3.2
	c3.5,2.2,16.3,10.3,16.3,10.3s2.9,2.5,5.8,2c2.9-0.5,5.6-4.5,5.6-4.5l14.2-17.3l7.3-7.1c0,0,2.7-2.5,5-1.7s4.8,2.5,4.8,2.5l9.9,8.8
	c0,0,3,2.4,3.8,2.6s1.3,0.7,2.4,0.2s0.8-2.4,0.8-2.4l-2.8-2.7l-9-7.6l-5.7-3.8c0,0-5.7-4.3-10.9,0s-9.1,8.3-9.1,8.3l-9.9,12.3
	l-4.4,4.8c0,0-1.5,2.9-3.2,2.6c-1.7-0.3-3.2-1.1-5.9-2.8c-2.7-1.7-9.4-5.7-9.4-5.7s-6-4.3-10.9-5.5c-5-1.2-6.8-0.6-9.8,2.1
	S102.8,268,102.8,268z"/>
<line class="st1" x1="278.3" y1="116.2" x2="258.1" y2="138.5"/>
<line class="st1" x1="245.6" y1="99.9" x2="244.5" y2="130"/>
<line class="st1" x1="291.9" y1="145" x2="262.6" y2="151.8"/>
<line class="st1" x1="272.3" y1="169.1" x2="259.4" y2="164.6"/>
<line class="st1" x1="222" y1="120.6" x2="229.3" y2="130.9"/>
</svg>
