<?xml version="1.0" encoding="utf-8"?>
<!-- Generator: Adobe Illustrator 23.0.4, SVG Export Plug-In . SVG Version: 6.00 Build 0)  -->
<svg version="1.1" id="Layer_1" xmlns="http://www.w3.org/2000/svg" xmlns:xlink="http://www.w3.org/1999/xlink" x="0px" y="0px"
	 viewBox="0 0 400 400" style="enable-background:new 0 0 400 400;" xml:space="preserve">
<style type="text/css">
	.st0{fill:#010101;}
	.st1{fill:none;stroke:#000000;stroke-width:3;stroke-miterlimit:10;}
</style>
<path class="st0" d="M197.7,270.6c-8.3,0-16.6-2.6-23.7-7.9c-13.8-10.2-23.5-25.4-27.3-42.7c-2.5-11.6-2.4-23.7-2.3-35.3
	c0-2.6,0.1-5.1,0.1-7.7v-33.2c0-1.1,0.9-2,2-2H250c1.1,0,2,0.9,2,2v25.8c0,3.5,0.1,7,0.1,10.5c0.2,10.3,0.4,20.9-1.2,31.1
	c-3,19-11.2,35.3-23.9,47c-1.6,1.5-3.2,2.8-4.8,4.1C214.9,267.8,206.3,270.6,197.7,270.6z M148.5,145.8V177c0,2.6,0,5.2-0.1,7.7
	c-0.1,11.4-0.3,23.2,2.2,34.4c3.6,16.3,12.7,30.7,25.8,40.3c13,9.6,30.5,9.4,43.4-0.5c1.5-1.2,3.1-2.5,4.6-3.8
	c12-11.1,19.9-26.5,22.7-44.6c1.5-9.8,1.3-20.3,1.1-30.4c-0.1-3.5-0.1-7.1-0.1-10.6v-23.8H148.5z"/>
<path class="st0" d="M236.8,242.6c-0.5,0-1.1-0.2-1.4-0.6l-89.1-95.8c-0.7-0.8-0.7-2.1,0.1-2.8c0.8-0.7,2-0.7,2.8,0.1l89.1,95.8
	c0.7,0.8,0.7,2.1-0.1,2.8C237.8,242.4,237.3,242.6,236.8,242.6z"/>
<path d="M179.6,233c0,0-12.4-8.3-14.6-9.4c-2.1-1-6.2,2.4-6.2,2.4s-16,11.2-21.9,15.6c-5.9,4.4-13.2-2.8-15.9-4.4
	c-2.7-1.6-6.7-5.3-13.1-2.6c-1.2,0.5-2.1,1.3-3,2.3c-4.3,4.8-7.9,10.6-7.9,10.6s-1.2,2.9-2.7,2.4c-2.3-0.7-1.4-2.7-1.4-2.7
	c0.8-3.8,5.6-7.6,8.2-11c3.1-3.9,8-6.3,12.7-5.7c2.5,0.4,4.8,1.1,6.9,2.6s4,3.2,6.3,4.4c0.6,0.3,2.9,1.6,3.5,1.9
	c2.8,0.9,4.6-0.8,5.5-1.2c0.2-0.1,0.4-0.3,0.6-0.4l23.4-17.1c0,0,1.8-2.1,4.7-1.3s17.1,10.4,17.8,10.9c0.8,0.6,2.2,2.2,1,3.6
	C182.4,235.1,179.6,233,179.6,233z"/>
<path d="M102.8,268l-6.9,10.8c0,0-1.2,2.4,1.1,3.3c2.3,1,3.6-2.6,3.6-2.6s5.8-9.2,7.9-11.5s5-5.5,6.9-5.4c2,0.1,5.5,1,9,3.2
	s16.3,10.3,16.3,10.3s2.9,2.5,5.8,2c2.9-0.5,5.6-4.5,5.6-4.5l14.2-17.3l7.3-7.1c0,0,2.7-2.5,5-1.7s4.8,2.5,4.8,2.5l9.9,8.8
	c0,0,3,2.4,3.8,2.6s1.3,0.7,2.4,0.2s0.8-2.4,0.8-2.4l-2.8-2.7l-9-7.6l-5.7-3.8c0,0-5.7-4.3-10.9,0s-9.1,8.3-9.1,8.3l-9.9,12.3
	l-4.4,4.8c0,0-1.5,2.9-3.2,2.6s-3.2-1.1-5.9-2.8c-2.7-1.7-9.4-5.7-9.4-5.7s-6-4.3-10.9-5.5c-5-1.2-6.8-0.6-9.8,2.1
	S102.8,268,102.8,268z"/>
<g>
	<circle cx="187.2" cy="-82.4" r="18.3"/>
	<line class="st1" x1="187.2" y1="-108.8" x2="187.2" y2="-131.2"/>
	<line class="st1" x1="205.6" y1="-101.2" x2="221.3" y2="-117.3"/>
	<line class="st1" x1="168.7" y1="-101.2" x2="153" y2="-117.3"/>
	<line class="st1" x1="160.8" y1="-83" x2="138.3" y2="-83.5"/>
	<line class="st1" x1="167.9" y1="-64.4" x2="151.5" y2="-49"/>
	<line class="st1" x1="186" y1="-56.1" x2="185" y2="-33.6"/>
	<line class="st1" x1="204.7" y1="-62.8" x2="219.7" y2="-46"/>
	<line class="st1" x1="213.5" y1="-80.7" x2="235.9" y2="-79.2"/>
</g>
<g>
	<path d="M248.3,118c-0.8,0-1.5-0.7-1.5-1.5V94.1c0-0.8,0.7-1.5,1.5-1.5s1.5,0.7,1.5,1.5v22.5C249.8,117.4,249.2,118,248.3,118z"/>
	<path d="M266.8,125.6c-0.4,0-0.8-0.1-1-0.4c-0.6-0.6-0.6-1.5,0-2.1l15.7-16c0.6-0.6,1.5-0.6,2.1,0c0.6,0.6,0.6,1.5,0,2.1l-15.7,16
		C267.6,125.4,267.2,125.6,266.8,125.6z"/>
	<path d="M229.9,125.6c-0.4,0-0.8-0.2-1.1-0.5L213.1,109c-0.6-0.6-0.6-1.5,0-2.1c0.6-0.6,1.5-0.6,2.1,0L231,123
		c0.6,0.6,0.6,1.5,0,2.1C230.7,125.4,230.3,125.6,229.9,125.6z"/>
	<path d="M280.9,180.8c-0.4,0-0.8-0.2-1.1-0.5l-15-16.7c-0.6-0.6-0.5-1.6,0.1-2.1c0.6-0.6,1.6-0.5,2.1,0.1l15,16.7
		c0.6,0.6,0.5,1.6-0.1,2.1C281.6,180.6,281.3,180.8,280.9,180.8z"/>
	<path d="M297.1,147.6c0,0-0.1,0-0.1,0l-22.4-1.5c-0.8-0.1-1.5-0.8-1.4-1.6c0.1-0.8,0.8-1.5,1.6-1.4l22.4,1.5
		c0.8,0.1,1.5,0.8,1.4,1.6C298.5,147,297.8,147.6,297.1,147.6z"/>
</g>
<path d="M249.6,162.8v-19.2h-21.2l0.1-1.6c0.5-10.6,9.2-18.9,19.7-18.9c10.9,0,19.8,8.9,19.8,19.8c0,9.8-7,18-16.7,19.5L249.6,162.8
	z M231.7,140.6h21v18.6c7.3-1.9,12.4-8.5,12.4-16.2c0-9.3-7.5-16.8-16.8-16.8C239.8,126.2,232.8,132.4,231.7,140.6z"/>
</svg>
