<svg width="24" height="24" viewBox="0 0 24 24" fill="none" xmlns="http://www.w3.org/2000/svg">
<path d="M12 5.42969C8.37714 5.42969 5.42969 8.37709 5.42969 12C5.42969 15.6229 8.37714 18.5703 12 18.5703C15.6229 18.5703 18.5703 15.6229 18.5703 12C18.5703 8.37714 15.6229 5.42969 12 5.42969ZM12 17.6328C8.89408 17.6328 6.36719 15.106 6.36719 12C6.36719 8.89403 8.89408 6.36719 12 6.36719C15.106 6.36719 17.6328 8.89408 17.6328 12C17.6328 15.106 15.106 17.6328 12 17.6328Z" fill="black"/>
<path d="M12 4.54688C12.2589 4.54688 12.4688 4.33702 12.4688 4.07812V0.46875C12.4688 0.209859 12.2589 0 12 0C11.7411 0 11.5312 0.209859 11.5312 0.46875V4.07812C11.5312 4.33702 11.7411 4.54688 12 4.54688Z" fill="black"/>
<path d="M7.63377 5.37394C7.72058 5.52431 7.87813 5.60836 8.04013 5.60836C8.11963 5.60836 8.20025 5.58811 8.27408 5.5455C8.49829 5.41608 8.57511 5.12939 8.44564 4.90519L7.37282 3.04697C7.24339 2.82272 6.95666 2.74594 6.7325 2.8754C6.5083 3.00483 6.43147 3.29151 6.56094 3.51572L7.63377 5.37394Z" fill="black"/>
<path d="M1.93262 12.4688H4.07827C4.33716 12.4688 4.54702 12.2589 4.54702 12C4.54702 11.7411 4.33716 11.5312 4.07827 11.5312H1.93262C1.67373 11.5312 1.46387 11.7411 1.46387 12C1.46387 12.2589 1.67373 12.4688 1.93262 12.4688Z" fill="black"/>
<path d="M8.27408 18.4545C8.04997 18.3251 7.76324 18.4018 7.63377 18.626L6.56094 20.4843C6.43147 20.7085 6.5083 20.9951 6.7325 21.1246C6.80633 21.1672 6.88691 21.1874 6.96646 21.1874C7.12846 21.1874 7.286 21.1034 7.37282 20.953L8.44564 19.0948C8.57511 18.8706 8.49829 18.5839 8.27408 18.4545V18.4545Z" fill="black"/>
<path d="M16.367 18.6261C16.2375 18.4018 15.9508 18.325 15.7266 18.4545C15.5024 18.5839 15.4256 18.8706 15.5551 19.0948L16.6279 20.953C16.7147 21.1034 16.8723 21.1875 17.0343 21.1875C17.1138 21.1875 17.1944 21.1672 17.2682 21.1246C17.4924 20.9952 17.5693 20.7085 17.4398 20.4843L16.367 18.6261Z" fill="black"/>
<path d="M22.0675 11.5312H19.9219C19.663 11.5312 19.4531 11.7411 19.4531 12C19.4531 12.2589 19.663 12.4688 19.9219 12.4688H22.0675C22.3264 12.4688 22.5363 12.2589 22.5363 12C22.5363 11.7411 22.3264 11.5312 22.0675 11.5312Z" fill="black"/>
<path d="M15.7266 5.54547C15.8005 5.58808 15.8811 5.60833 15.9606 5.60833C16.1226 5.60833 16.2801 5.52428 16.367 5.3739L17.4398 3.51569C17.5693 3.29148 17.4924 3.0048 17.2682 2.87537C17.0441 2.74595 16.7574 2.82273 16.6279 3.04694L15.5551 4.90515C15.4256 5.12931 15.5024 5.41604 15.7266 5.54547V5.54547Z" fill="black"/>
<path d="M1.77938 6.64037L4.90519 8.44506C4.97902 8.48767 5.0596 8.50792 5.13915 8.50792C5.30115 8.50792 5.45869 8.42387 5.54551 8.2735C5.67497 8.0493 5.59815 7.76261 5.37394 7.63319L2.24813 5.8285C2.02388 5.69908 1.73729 5.77586 1.60782 6.00006C1.47835 6.22426 1.55518 6.51095 1.77938 6.64037Z" fill="black"/>
<path d="M4.90519 15.5551L1.77938 17.3598C1.55518 17.4892 1.47835 17.7759 1.60782 18.0001C1.69463 18.1505 1.85218 18.2345 2.01418 18.2345C2.09368 18.2345 2.1743 18.2143 2.24813 18.1717L5.37394 16.367C5.59815 16.2375 5.67497 15.9509 5.54551 15.7267C5.41604 15.5024 5.12935 15.4256 4.90519 15.5551V15.5551Z" fill="black"/>
<path d="M22.2206 17.3597L19.0948 15.555C18.8707 15.4257 18.584 15.5024 18.4545 15.7266C18.325 15.9508 18.4019 16.2375 18.6261 16.3669L21.7519 18.1716C21.8257 18.2142 21.9063 18.2345 21.9858 18.2345C22.1478 18.2345 22.3054 18.1504 22.3922 18C22.5217 17.7758 22.4448 17.4891 22.2206 17.3597V17.3597Z" fill="black"/>
<path d="M18.8618 8.50795C18.9413 8.50795 19.022 8.4877 19.0958 8.44509L22.2216 6.64041C22.4458 6.51098 22.5226 6.2243 22.3932 6.00009C22.2637 5.77584 21.977 5.69906 21.7528 5.82853L18.627 7.63322C18.4028 7.76264 18.326 8.04933 18.4555 8.27353C18.5422 8.42391 18.6998 8.50795 18.8618 8.50795Z" fill="black"/>
<path d="M12 19.4531C11.7411 19.4531 11.5312 19.663 11.5312 19.9219V23.5312C11.5312 23.7901 11.7411 24 12 24C12.2589 24 12.4688 23.7901 12.4688 23.5312V19.9219C12.4688 19.663 12.2589 19.4531 12 19.4531Z" fill="black"/>
<path d="M7.96541 13.3092C7.78236 13.4922 7.78236 13.7894 7.96541 13.9724C8.05696 14.0639 8.177 14.1097 8.29705 14.1097C8.4171 14.1097 8.53715 14.0639 8.62869 13.9724C8.81174 13.7894 8.81174 13.4922 8.62869 13.3092C8.4456 13.1261 8.14846 13.1261 7.96541 13.3092V13.3092Z" fill="black"/>
<path d="M12.0469 7.47656C9.55266 7.47656 7.52344 9.50578 7.52344 12C7.52344 12.2589 7.7333 12.4688 7.99219 12.4688C8.25108 12.4688 8.46094 12.2589 8.46094 12C8.46094 10.0227 10.0696 8.41406 12.0469 8.41406C12.3058 8.41406 12.5156 8.2042 12.5156 7.94531C12.5156 7.68642 12.3058 7.47656 12.0469 7.47656Z" fill="black"/>
</svg>
